<?xml version="1.0" encoding="utf-8"?>
<!-- Generator: Adobe Illustrator 16.0.0, SVG Export Plug-In . SVG Version: 6.00 Build 0)  -->
<!DOCTYPE svg PUBLIC "-//W3C//DTD SVG 1.1//EN" "http://www.w3.org/Graphics/SVG/1.1/DTD/svg11.dtd">
<svg version="1.1" id="レイヤー_1" xmlns="http://www.w3.org/2000/svg" xmlns:xlink="http://www.w3.org/1999/xlink" x="0px"
	 y="0px" width="300px" height="450px" viewBox="45 -65 300 450" enable-background="new 45 -65 300 450" xml:space="preserve">
<g>
	<rect x="45" y="-65" fill="#F4F4F4" width="300" height="450"/>
	<g>
		<path fill="#94111C" d="M119.201,130.822c2.47-0.801,4.996-1.1,7.582-0.898c2.588,0.203,5.035,0.893,7.347,2.07
			s4.312,2.752,5.995,4.725c1.687,1.972,2.93,4.192,3.73,6.659c0.803,2.467,1.102,4.993,0.9,7.579
			c-0.203,2.587-0.894,5.036-2.071,7.348s-2.753,4.311-4.724,5.997c-1.973,1.685-4.192,2.927-6.66,3.729
			c-2.467,0.803-4.993,1.102-7.579,0.899c-2.588-0.202-5.036-0.894-7.347-2.071c-2.313-1.176-4.312-2.751-5.998-4.725
			c-1.684-1.973-2.928-4.191-3.729-6.657c-0.802-2.47-1.101-4.995-0.899-7.582c0.203-2.587,0.895-5.034,2.07-7.347
			c1.178-2.311,2.752-4.311,4.725-5.995C114.516,132.867,116.734,131.624,119.201,130.822z"/>
		<rect x="107.466" y="204.564" fill="#94111C" width="35.572" height="35.572"/>
		<rect x="177.596" y="131.349" fill="#94111C" width="35.571" height="108.786"/>
		<rect x="248.739" y="131.349" fill="#94111C" width="35.572" height="108.786"/>
	</g>
</g>
</svg>
