<?xml version="1.0" encoding="utf-8"?>
<!-- Generator: Adobe Illustrator 16.0.0, SVG Export Plug-In . SVG Version: 6.00 Build 0)  -->
<!DOCTYPE svg PUBLIC "-//W3C//DTD SVG 1.1//EN" "http://www.w3.org/Graphics/SVG/1.1/DTD/svg11.dtd">
<svg version="1.1" id="レイヤー_1" xmlns="http://www.w3.org/2000/svg" xmlns:xlink="http://www.w3.org/1999/xlink" x="0px"
	 y="0px" width="30px" height="30px" viewBox="0 0 30 30" enable-background="new 0 0 30 30" xml:space="preserve">
<path fill="#94111C" d="M8.448,13.7v4.029H5.89L4.729,13.7H8.448z M8.448,7.675v3.923H4.123l-1.13-3.923H8.448z M14.697,7.675v3.923
	h-4.484V7.675H14.697z M14.697,13.7v4.029h-4.484V13.7H14.697z M22.018,7.675l-1.012,3.923h-4.208V7.675H22.018z M20.465,13.7
	l-1.041,4.029h-2.626V13.7H20.465z M24.895,0.11c-0.544,0-1.019,0.367-1.154,0.895l-1.18,4.569H1.783
	c-0.374,0-0.727,0.176-0.951,0.475C0.606,6.347,0.535,6.735,0.639,7.095L4.06,18.969c0.147,0.51,0.614,0.861,1.146,0.861h13.675
	l-0.515,1.996H5.309v2.102h13.763c0.542,0,1.017-0.369,1.153-0.895L25.599,2.21h3.81V0.11H24.895z"/>
<circle fill="#94111C" cx="7.316" cy="27.641" r="2.131"/>
<circle fill="#94111C" cx="17.541" cy="27.76" r="2.131"/>
</svg>
