<?xml version="1.0" encoding="utf-8"?>
<!-- Generator: Adobe Illustrator 16.0.0, SVG Export Plug-In . SVG Version: 6.00 Build 0)  -->
<!DOCTYPE svg PUBLIC "-//W3C//DTD SVG 1.1//EN" "http://www.w3.org/Graphics/SVG/1.1/DTD/svg11.dtd">
<svg version="1.1" id="レイヤー_1" xmlns="http://www.w3.org/2000/svg" xmlns:xlink="http://www.w3.org/1999/xlink" x="0px"
	 y="0px" width="16px" height="16px" viewBox="0 0 16 16" enable-background="new 0 0 16 16" xml:space="preserve">
<path fill="#FFFFFF" d="M13.359,1H2.641C1.738,1,1,1.737,1,2.641v10.718C1,14.261,1.738,15,2.641,15h5.723V9.635H6.688v-2.16h1.676
	V5.905c0-1.764,0.862-2.812,2.848-2.812h1.653v2.161h-1.252c-0.772,0-0.824,0.302-0.824,0.865l-0.003,1.354h1.981l-0.273,2.16
	h-1.708V15h2.574C14.262,15,15,14.261,15,13.358V2.641C15,1.737,14.262,1,13.359,1z"/>
</svg>
