<?xml version="1.0" encoding="utf-8"?>
<!-- Generator: Adobe Illustrator 16.0.0, SVG Export Plug-In . SVG Version: 6.00 Build 0)  -->
<!DOCTYPE svg PUBLIC "-//W3C//DTD SVG 1.1//EN" "http://www.w3.org/Graphics/SVG/1.1/DTD/svg11.dtd">
<svg version="1.1" id="レイヤー_1" xmlns="http://www.w3.org/2000/svg" xmlns:xlink="http://www.w3.org/1999/xlink" x="0px"
	 y="0px" width="16px" height="16px" viewBox="0 0 16 16" enable-background="new 0 0 16 16" xml:space="preserve">
<g>
	<g>
		<path fill="#FFFFFF" d="M10.908,15H5.092C2.835,15,1,13.162,1,10.908V5.092C1,2.838,2.835,1,5.092,1h5.816
			C13.164,1,15,2.838,15,5.092v5.816C15,13.162,13.164,15,10.908,15z M5.092,2.304c-1.537,0-2.788,1.252-2.788,2.788v5.816
			c0,1.535,1.251,2.789,2.788,2.789h5.816c1.535,0,2.787-1.254,2.787-2.789V5.092c0-1.536-1.252-2.788-2.787-2.788H5.092z"/>
		<circle fill="#FFFFFF" cx="11.74" cy="4.267" r="0.873"/>
		<path fill="#FFFFFF" d="M8,11.619c-1.995,0-3.62-1.625-3.62-3.619c0-1.996,1.625-3.619,3.62-3.619S11.619,6.004,11.619,8
			C11.619,9.994,9.995,11.619,8,11.619z M8,5.688C6.725,5.688,5.686,6.725,5.686,8c0,1.275,1.039,2.314,2.314,2.314
			c1.275,0,2.314-1.039,2.314-2.314C10.314,6.725,9.275,5.688,8,5.688z"/>
	</g>
</g>
</svg>
