<?xml version="1.0" encoding="utf-8"?>
<!-- Generator: Adobe Illustrator 16.0.0, SVG Export Plug-In . SVG Version: 6.00 Build 0)  -->
<!DOCTYPE svg PUBLIC "-//W3C//DTD SVG 1.1//EN" "http://www.w3.org/Graphics/SVG/1.1/DTD/svg11.dtd">
<svg version="1.1" id="レイヤー_1" xmlns="http://www.w3.org/2000/svg" xmlns:xlink="http://www.w3.org/1999/xlink" x="0px"
	 y="0px" width="150px" height="80px" viewBox="0 0 150 80" enable-background="new 0 0 150 80" xml:space="preserve">
<path fill="#A72126" d="M26.604,36.49c-3.479-1.071-2.463-2.159-2.463-2.159s1.154-1.486-0.645-1.444
	c-0.034,0-0.068-0.002-0.102-0.002c0.542-0.356,1.497-0.77,2.322-1.304c0.962-0.622,1.858-1.264,2.193-1.518
	c0.138,0.286,0.272,0.513,0.4,0.661c1.141,1.314,3.237,4.651,1.887,5.507C29.227,36.846,28.685,37.128,26.604,36.49z M15.549,28.091
	c-0.521-0.447-0.809-1.014-1.088-1.382c-0.027-0.04-0.055-0.079-0.083-0.117c-0.168,0.167-0.449,0.375-0.675,0.531
	c0.021,0.045,0.045,0.093,0.066,0.134c0.178,0.375,0.518,1.018,0.995,1.607C14.968,28.657,15.261,28.368,15.549,28.091z
	 M18.816,36.042c-0.103,1.579,0.056,2.623-0.87,4.045c-0.563,0.864-1.784,0.776-3.495,1.021c-1.711,0.246-3.536,0.038-3.303-1.34
	c0.326-1.925,2.017-1.752,1.883-3.585c-0.174-2.427,0.045-4.25,2.279-6.729c0.203-0.189,0.792-0.81,1.151-1.164
	c0.537-0.506,1.093-0.991,1.643-1.446c1.575-1.295,3.079-2.327,3.838-2.807c0.699-0.434,2.241-1.183,3.716-1.55
	c0.736-0.184,1.455-0.277,2.043-0.184c1.204,0.186,1.901,0.362,2.319,0.553c0.632,0.292,1.062-0.493,1.169-0.716
	c0.495-3.097-0.073-6.748-1.707-9.229c-0.552-0.834-1.191-1.551-1.904-2.094c-0.192-0.146-0.387-0.287-0.582-0.423
	c-0.056-0.02-0.113-0.032-0.176-0.06c-1.035-0.46-2.258,0.556-2.628,0.995c-0.923,1.094-1.466,4.953-2.865,8.125
	c-1.092,2.475-4.495,4.704-6.798,6.305h0.002h-0.001c0.001,0,0.001,0,0.002,0h-0.001c0,0-0.333,0.197-0.486,0.341
	c0.001,0,0.002-0.002,0.002-0.002c0,0-0.001,0.002-0.002,0.002c-0.243,0.229-0.296,0.256-0.59,0.517
	c-0.301,0.332-0.47,0.641-0.681,0.9c-0.59,0.728-1.705,1.499-2.738,1.442c-0.409-0.021-0.799-0.144-1.143-0.314
	c-0.045,0.032-0.089,0.066-0.137,0.093c-0.094,0.055-0.195,0.103-0.296,0.152c-0.057,0.024-0.114,0.053-0.17,0.082l-0.163,0.085
	c-0.099,0.053-0.198,0.106-0.301,0.152c-0.102,0.045-0.206,0.078-0.311,0.11c-0.061,0.019-0.122,0.036-0.181,0.059
	c-0.107,0.042-0.214,0.068-0.322,0.097c-0.058,0.017-0.117,0.033-0.175,0.051l-0.168,0.057c-0.112,0.034-0.22,0.071-0.329,0.099
	c-0.174,0.04-0.345,0.076-0.513,0.099c-0.042,0.008-0.085,0.012-0.129,0.02c-0.084,0.005-0.167,0.007-0.25,0.011L5.3,29.813
	c-0.188,0.012-0.362,0.018-0.53,0.002C4.587,29.8,4.412,29.77,4.232,29.72c-0.225-0.06-0.387-0.13-0.525-0.225
	c-0.158-0.108-0.339-0.229-0.443-0.432c-0.095-0.191-0.143-0.404-0.134-0.618c0.006-0.171,0.05-0.368,0.127-0.575
	c0.055-0.149,0.141-0.286,0.224-0.417l0.042-0.068c0.089-0.144,0.195-0.284,0.314-0.428c0.035-0.045,0.069-0.093,0.103-0.134
	c0.067-0.097,0.138-0.197,0.225-0.28c0.075-0.077,0.165-0.137,0.257-0.203c0.055-0.036,0.11-0.076,0.161-0.12
	c0.042-0.036,0.085-0.078,0.127-0.113c0.084-0.078,0.171-0.16,0.265-0.227l0.13-0.103c0.091-0.075,0.186-0.146,0.284-0.211
	c0.141-0.093,0.292-0.184,0.443-0.274c0.09-0.053,0.188-0.093,0.289-0.129c0.062-0.023,0.13-0.049,0.189-0.08
	c0.155-0.081,0.31-0.159,0.465-0.225c0.061-0.029,0.12-0.057,0.177-0.087c0.097-0.047,0.194-0.095,0.294-0.131
	c0.166-0.062,0.33-0.117,0.492-0.167l0.121-0.04c0.13-0.042,0.253-0.083,0.38-0.11c0.118-0.032,0.239-0.047,0.357-0.059l0.16-0.019
	c0.062-0.013,0.124-0.021,0.186-0.036c0.114-0.022,0.226-0.045,0.337-0.053c0.14-0.01,0.265,0.013,0.378,0.03
	c0.054,0.009,0.107,0.019,0.159,0.022l0.136,0.008c0.134,0.005,0.274,0.015,0.411,0.049c0.159,0.049,0.311,0.118,0.453,0.205
	c0.484-0.216,0.621-0.487,1.057-1.069c0.098-0.13,0.199-0.274,0.302-0.42c0.493-0.635,1.27-1.924,1.399-2.149
	c0.414-0.623,1.044-1.531,0.961-2.113c-0.021-0.154-0.06-0.305-0.102-0.459c-0.192-0.18-0.452-0.312-0.6,0.07
	c-0.201,0.714-0.362,1.427-0.479,2.13l-0.004,0.002c-0.036,0.259-0.4,0.817-0.827,1.309c0.031-0.358,0.079-0.723,0.145-1.096l0,0
	c-0.6,0.133-1.213,0.221-1.816,0.286c-0.816,0.091-2.448-0.087-3.088-0.125c-1.088-0.068-1.514,0.242-2.335,0.198l0.34,2.77
	c0.036,0.304,0.001,0.461-0.118,0.51c-0.029,0.011-0.055,0.017-0.077,0.017c-0.039,0.002-0.065-0.01-0.071-0.016
	c-0.026-0.009-0.126-0.043-0.193-0.403l-0.556-2.981c-0.167-0.038-0.343-0.085-0.526-0.136l0.81,3.159
	c0.074,0.292,0.05,0.462-0.074,0.521c-0.03,0.013-0.062,0.019-0.085,0.019c-0.03,0-0.05-0.003-0.054-0.003
	c-0.12-0.033-0.205-0.222-0.255-0.377l-1.167-3.61c-0.826-0.334-1.548-0.773-1.58-1.185c-0.101-1.241,0.067-1.96,0.442-2.33
	l-0.37-1.143C1.8,15.553,1.91,15.306,2.199,15.164c0.133-0.066,0.242-0.089,0.339-0.072c0.15,0.021,0.259,0.121,0.296,0.271
	l0.336,1.311c0.032,0,0.058-0.005,0.092-0.003c0.078,0.001,0.399,0.067,0.72,0.137l-0.317-1.705
	c-0.031-0.167,0.062-0.446,0.447-0.541c0.155-0.04,0.287-0.024,0.385,0.043c0.101,0.068,0.164,0.189,0.185,0.361l0.255,2.083
	c0.819,0.165,2.438,0.21,3.109,0.176h0.019c0.424,0.196,0.614,0.377,1.056,0.469c0.18,0.069,1.471,0.292,2.054,0.19
	c1.391-0.241,1.84-0.605,2.084-0.814c0.03-0.028,0.054-0.065,0.036-0.105c-0.019-0.04-0.067-0.057-0.106-0.038l-0.006,0.002
	c-0.392,0.181-0.79,0.35-1.213,0.434c-0.208,0.058-0.423,0.076-0.635,0.108c-0.212,0.012-0.425,0.033-0.641,0.021
	c-0.428-0.006-0.855-0.059-1.271-0.161c-0.36-0.089-1.021-0.358-1.184-0.426c-0.708-0.377-1.324-0.968-1.865-1.794
	c-1.29-1.971-1.615-3.964-1.03-6.255C4.571,8.742,3.74,8.386,4.035,7.251c0.232-0.896,1.431-1.687,2.49-1.03
	c0.286-0.415,0.588-0.772,0.896-1.063c-0.077-0.087-0.116-0.135-0.25-0.284C6.982,4.662,7.066,4.528,6.796,4.437
	C6.383,4.294,6.313,4.59,5.925,4.445C5.732,4.371,5.53,4.221,5.418,3.997C5.331,3.823,5.285,3.594,5.344,3.319
	c0.064-0.302,0.247-0.474,0.408-0.624c0.208-0.193,0.401-0.34,0.426-0.596C6.196,1.904,6.214,1.716,6.25,1.544
	c0.038-0.192,0.094-0.374,0.183-0.529C6.521,0.859,6.64,0.713,6.81,0.599c0.241-0.165,0.45-0.242,0.63-0.282
	c0.257-0.058,0.474-0.029,0.683,0.031C8.335,0.41,8.539,0.521,8.788,0.539c0.195,0.015,0.379-0.034,0.568-0.08
	C9.535,0.417,9.715,0.374,9.92,0.392c0.163,0.014,0.35,0.045,0.547,0.161c0.198,0.116,0.329,0.262,0.421,0.404
	C11,1.132,11.061,1.322,11.066,1.509c0.007,0.201-0.043,0.4-0.089,0.579c-0.067,0.25-0.165,0.429-0.276,0.546
	c-0.248,0.267-0.448-0.028-0.542,0.265c-0.069,0.22,0.062,0.222,0.137,0.439c0.058,0.167,0.069,0.209,0.105,0.319
	c0.166-0.042,0.332-0.082,0.5-0.113c0.018-0.051,0.021-0.097,0.043-0.15c0.417-0.988,1.978-1.787,2.95-0.323
	c0.108,0.162,0.171,0.317,0.203,0.471c0.28,0.057,0.556,0.128,0.821,0.215c0.644,0.214,1.188,0.511,1.615,0.869
	c1.058,0.292,4.76,1.363,8.451,3.128c0.922,0.443,2.414,1.484,3.079,2.144c0.032,0.021,0.065,0.045,0.095,0.067
	c1.891,1.448,3.193,4.26,3.788,7.153l0.007-0.002c0,0,0.203,0.563,0.566,0.398c0.468-0.209,1.184-0.335,2.125,0.229
	c1.34,0.803,0.478,3.775-1.02,3.967c-0.877,0.113-1.419,0.644-1.521,1.288c-0.003,0.019-0.009,0.019-0.016,0.006
	c-0.246,1.317-0.695,2.53-1.411,3.51l-0.013,0.001c-0.675,1.102-1.685,2.123-2.844,3.044c-0.096,0.055-1.301,0.993-2.717,1.792
	c-1.044,0.588-2.097,1.217-2.635,1.471c-0.66,0.316-1.28,0.597-1.824,0.825C20.324,33.774,18.953,33.979,18.816,36.042z
	 M10.922,25.561c0.004-0.119-0.021-0.227-0.083-0.352c-0.074-0.142-0.138-0.229-0.227-0.283c-0.116-0.082-0.243-0.138-0.379-0.176
	c-0.083-0.022-0.189-0.026-0.302-0.032L9.78,24.706c-0.066-0.006-0.134-0.017-0.203-0.024c-0.095-0.019-0.184-0.033-0.269-0.027
	c-0.007,0-0.014,0.002-0.02,0.002c-0.08,0.01-0.159,0.025-0.241,0.043c-0.071,0.014-0.14,0.027-0.213,0.04L8.66,24.761
	c-0.101,0.01-0.203,0.021-0.304,0.045c-0.113,0.024-0.227,0.062-0.342,0.099l-0.124,0.04c-0.152,0.047-0.309,0.095-0.464,0.156
	c-0.085,0.034-0.168,0.075-0.25,0.117c-0.065,0.029-0.13,0.063-0.197,0.093c-0.148,0.061-0.292,0.135-0.44,0.208
	c-0.077,0.04-0.158,0.073-0.237,0.103c-0.075,0.03-0.15,0.057-0.217,0.095c-0.145,0.085-0.286,0.17-0.421,0.26
	c-0.087,0.054-0.167,0.121-0.248,0.186l-0.142,0.109c-0.081,0.059-0.153,0.131-0.225,0.197c-0.046,0.044-0.093,0.087-0.141,0.127
	C4.842,26.65,4.773,26.7,4.703,26.747c-0.064,0.049-0.131,0.091-0.184,0.142c-0.067,0.066-0.121,0.144-0.173,0.216
	c-0.04,0.055-0.08,0.112-0.122,0.167c-0.102,0.127-0.197,0.249-0.276,0.375L3.903,27.72c-0.07,0.109-0.138,0.216-0.179,0.326
	c-0.057,0.154-0.09,0.296-0.094,0.415c-0.006,0.13,0.021,0.26,0.08,0.372c0.045,0.095,0.159,0.17,0.28,0.248
	c0.09,0.061,0.206,0.112,0.378,0.159c0.149,0.043,0.292,0.066,0.441,0.08c0.147,0.011,0.301,0.009,0.467-0.003l0.167-0.004
	c0.101-0.004,0.206-0.004,0.312-0.02c0.155-0.022,0.312-0.057,0.473-0.095c0.095-0.019,0.189-0.055,0.285-0.085l0.181-0.059
	c0.061-0.019,0.126-0.036,0.19-0.055c0.092-0.022,0.186-0.049,0.277-0.085c0.068-0.024,0.136-0.047,0.207-0.068
	c0.086-0.027,0.173-0.055,0.258-0.093c0.09-0.042,0.178-0.087,0.266-0.133l0.171-0.093c0.06-0.031,0.123-0.059,0.185-0.091
	c0.088-0.042,0.177-0.082,0.258-0.129c0.079-0.045,0.154-0.101,0.226-0.153c0.06-0.047,0.12-0.09,0.179-0.129
	c0.067-0.045,0.137-0.085,0.205-0.123c0.028-0.017,0.052-0.032,0.077-0.049c-0.428-0.083-0.65-0.237-0.742-0.421
	c-0.08,0.057-0.164,0.112-0.255,0.167L7.963,27.74c-0.104,0.068-0.212,0.138-0.328,0.201c-0.156,0.078-0.311,0.148-0.462,0.207
	c-0.124,0.051-0.249,0.085-0.371,0.115l-0.115,0.033c-0.196,0.056-0.355,0.091-0.498,0.111c-0.102,0.013-0.193,0.023-0.276,0.032
	c-0.092,0.007-0.177,0.009-0.255-0.003c-0.251-0.035-0.441-0.156-0.53-0.332c-0.09-0.177-0.073-0.398,0.049-0.624
	c0.076-0.138,0.186-0.286,0.318-0.426c0.102-0.106,0.224-0.203,0.351-0.301l0.041-0.032c0.126-0.097,0.265-0.193,0.416-0.286
	l0.07-0.047c0.115-0.074,0.234-0.148,0.361-0.213c0.154-0.079,0.308-0.154,0.458-0.215c0.167-0.065,0.327-0.124,0.482-0.167
	c0.141-0.042,0.281-0.053,0.402-0.069l0.1-0.014c0.198-0.026,0.375-0.03,0.531-0.008c0.093,0.014,0.355,0.059,0.498,0.249
	c0.015-0.004,0.028-0.012,0.041-0.014c0.166-0.043,0.344-0.081,0.504-0.095c0.28-0.02,0.261-0.067,0.512-0.034
	c0.277,0.055,0.451,0.17,0.519,0.284c0.007-0.017,0.014-0.026,0.018-0.04l0.032-0.093C10.889,25.829,10.918,25.695,10.922,25.561z
	 M8.295,27.119c-0.015-0.174,0.069-0.349,0.17-0.512c0.106-0.178,0.205-0.366,0.313-0.464c0.022-0.019,0.057-0.03,0.086-0.049
	c-0.051-0.022-0.115-0.042-0.201-0.053c-0.093-0.013-0.201-0.018-0.319-0.008c-0.038,0.004-0.076,0.01-0.116,0.016L8.123,26.06
	c-0.115,0.017-0.234,0.028-0.352,0.064c-0.145,0.041-0.296,0.093-0.447,0.155c-0.143,0.055-0.286,0.127-0.431,0.201
	c-0.118,0.059-0.228,0.13-0.333,0.201l-0.074,0.045c-0.141,0.091-0.27,0.178-0.388,0.271l-0.041,0.027
	c-0.118,0.095-0.229,0.178-0.314,0.269c-0.112,0.118-0.205,0.241-0.264,0.353c-0.07,0.129-0.085,0.239-0.046,0.313
	c0.039,0.077,0.137,0.13,0.277,0.149c0.104,0.016,0.241-0.003,0.4-0.022c0.164-0.021,0.306-0.055,0.488-0.106l0.119-0.034
	c0.109-0.027,0.221-0.057,0.334-0.102c0.142-0.055,0.287-0.122,0.433-0.197c0.106-0.053,0.203-0.116,0.298-0.178l0.246-0.151
	c0.091-0.055,0.18-0.106,0.26-0.169c0.005-0.002,0.008-0.007,0.016-0.015C8.301,27.126,8.296,27.123,8.295,27.119z M16.696,5.944
	c-0.286-0.644-0.992-1.181-1.99-1.512c-0.23-0.075-0.471-0.128-0.715-0.176c-0.326,0.652-1.218,1.091-1.787,1.021
	c-0.562-0.066-1.175-0.404-1.339-0.991C10.85,4.29,10.836,4.29,10.823,4.295c-0.275,0.059-0.542,0.145-0.807,0.234
	c-0.084,0.03-0.168,0.057-0.252,0.086C9.65,4.657,9.542,4.707,9.431,4.753C9.202,4.852,8.968,4.944,8.755,5.066
	C8.696,5.099,8.637,5.14,8.579,5.178C8.534,5.205,8.493,5.232,8.45,5.264c-0.074,0.052-0.148,0.11-0.222,0.171
	c-0.092,0.08-0.182,0.159-0.276,0.25C7.834,5.798,7.724,5.93,7.609,6.064C7.604,6.069,7.591,6.07,7.582,6.07
	C7.409,6.27,7.242,6.503,7.081,6.75c0.317,0.554-0.192,1.552-0.889,1.958C6.166,8.795,6.135,8.875,6.11,8.964
	c-0.547,2.095-0.254,3.908,0.922,5.708c0.073,0.114,0.149,0.22,0.227,0.324l0,0l0,0l-0.002-0.012
	c-0.055-0.667,0.163-2.048,0.995-2.162c0.307-0.042,0.484,0.168,0.559,0.423c0.112,0.386,0.301,1.508-0.099,2.022
	c-0.267,0.339-0.604,0.438-0.887,0.377c0,0,0,0,0,0c1.13,1.086,2.556,1.274,4.646,0.667c1.858-0.537,2.785-1.677,3.507-2.827
	C16.804,12.166,17.477,7.708,16.696,5.944z M12.81,15.137c-0.391,0.363-0.997,0.06-1.139-0.019c0.29-0.277,0.476-0.823,0.075-0.911
	c-0.667-0.142-0.992,0.028-1.311,0.247c-0.338,0.233-0.03,0.93,0.745,0.861c0.032,0.197,0.049,0.588-0.247,0.667
	c-0.129,0.034-0.451,0.038-0.459,0.21c-0.006,0.152,0.437,0.13,0.548,0.106c0.208-0.04,0.411-0.116,0.527-0.313
	c0.018-0.027,0.027-0.058,0.041-0.089v0.01c0,0,0.123-0.185,0.402-0.165l-0.005-0.002c0.085,0.017,0.172,0.033,0.266,0.037
	c0.118,0.006,0.242-0.002,0.359-0.04c0.428-0.143,0.542-0.705,0.428-0.775C12.973,14.918,12.921,15.034,12.81,15.137z
	 M11.411,11.055c-1.343,0.975,0.818,2.242,1.758,2.358c0.94,0.115,1.772-0.837,0.857-1.687
	C12.548,10.358,11.411,11.055,11.411,11.055z M14.533,25.758c-0.002,0.002-0.329,0.197-0.483,0.339
	C14.204,25.989,14.365,25.876,14.533,25.758z M14.534,25.758c0,0-0.333,0.199-0.487,0.339c0.001,0,0.001,0,0.002,0
	c0.154-0.142,0.481-0.337,0.483-0.339C14.534,25.758,14.534,25.758,14.534,25.758L14.534,25.758z M6.893,73.92v-2.436H6.258
	c-0.09,0.09-0.193,0.193-0.349,0.193c-0.194,0-0.388-0.063-0.594-0.131c-0.246-0.079-0.672-0.152-1.073-0.152
	c-1.282,0-2.33,0.85-2.33,2.225c0,1.29,0.466,2.018,1.631,2.512l1.009,0.412c0.428,0.18,1.112,0.495,1.112,1.232
	c0,0.517-0.401,0.982-0.944,0.982c-0.879,0-1.525-0.426-1.85-0.945c-0.208-0.326-0.337-0.609-0.402-0.961H1.82v2.785h0.647
	c0.118-0.232,0.26-0.492,0.466-0.492c0.208,0,0.44,0.116,0.737,0.26c0.284,0.139,0.726,0.311,1.217,0.311
	c1.319,0,2.328-0.986,2.328-2.445c0-1.555-0.75-2.252-2.446-2.756c-0.982-0.285-1.449-0.52-1.435-1.254
	c0-0.504,0.336-1.062,1.062-1.062c0.555,0,1.189,0.426,1.423,0.726c0.194,0.245,0.348,0.611,0.439,0.998L6.893,73.92L6.893,73.92z
	 M11.175,77.799c0,0.594-0.104,0.971-0.415,1.035l-0.416,0.062v0.739h3.13v-0.739l-0.412-0.062
	c-0.325-0.064-0.428-0.441-0.428-1.035v-4.477c0-0.609,0.156-0.982,0.414-1.033l0.414-0.065v-0.735h-3.118v0.735l0.415,0.065
	c0.258,0.053,0.416,0.424,0.416,1.033L11.175,77.799L11.175,77.799z M18.119,73.322h0.025l2.263,6.314h1.501v-6.314
	c0-0.609,0.155-0.982,0.426-1.033l0.402-0.065v-0.735h-2.485v0.735l0.415,0.065c0.258,0.053,0.414,0.424,0.414,1.033v2.809h-0.013
	l-1.708-4.645h-2.898v0.735l0.415,0.063c0.259,0.053,0.413,0.424,0.413,1.035v4.477c0,0.592-0.103,0.969-0.413,1.033l-0.415,0.063
	v0.737h2.367v-0.737l-0.284-0.062c-0.323-0.078-0.426-0.443-0.426-1.035V73.322L18.119,73.322z M30.521,75.288v-3.84H29.64
	c0,0.335-0.077,0.411-0.208,0.411c-0.153,0-0.413-0.104-0.619-0.22c-0.336-0.171-0.673-0.245-1.049-0.245
	c-1.629,0-2.677,1.579-2.677,2.937v2.147c0,1.578,0.775,3.238,2.82,3.238c1.875,0,2.614-1.387,2.614-2.771h-1.332
	c0,1.436-0.465,1.942-1.243,1.942c-0.763,0-1.112-0.752-1.112-1.774v-3.439c0-0.725,0.157-1.437,0.931-1.437
	c1.009,0,1.424,1.771,1.424,3.053L30.521,75.288L30.521,75.288z M37.139,75.795v-0.922h-1.281v-1.681
	c0-0.596,0.194-0.905,0.854-0.905c0.608,0,1.124,0.503,1.124,1.474v0.544h0.816v-2.818h-5.086v0.735l0.415,0.063
	c0.258,0.053,0.415,0.424,0.415,1.035v4.477c0,0.592-0.104,0.98-0.415,1.033l-0.415,0.063v0.737h5.086v-2.926h-0.816v0.636
	c0,0.8-0.217,1.462-1.124,1.462c-0.661,0-0.854-0.379-0.854-0.894v-2.122h1.281V75.795z M47.16,79.637v-0.739l-0.415-0.062
	c-0.335-0.064-0.439-0.441-0.439-1.034v-6.315h-0.958c-0.311,0.686-0.764,0.907-1.424,0.907H43.64v0.866h1.217v4.539
	c0,0.594-0.09,0.971-0.427,1.035l-0.402,0.062v0.737L47.16,79.637L47.16,79.637z M52.08,72.222c0.569,0,0.917,0.636,0.917,1.646
	s-0.349,1.498-0.917,1.498c-0.582,0-0.932-0.492-0.932-1.498C51.15,72.857,51.472,72.222,52.08,72.222z M51.963,79.717
	c1.76,0,2.988-1.336,2.988-4.119c0-2.597-1.124-4.203-2.924-4.203c-1.24,0-2.417,0.614-2.417,2.654c0,1.615,1.164,2.354,2.121,2.354
	c0.568,0,1.061-0.217,1.382-0.648c0.119,1.438-0.09,3.144-1.204,3.144c-0.657,0-1.02-0.335-1.02-0.501
	c0-0.156,0.038-0.298,0.179-0.416c0.172-0.141,0.272-0.375,0.272-0.658c0-0.281-0.272-0.633-0.813-0.633
	c-0.531,0-0.766,0.58-0.766,1.189C49.765,79.016,50.877,79.717,51.963,79.717z M61.153,79.053c0-1.877,0.583-3.145,1.139-4.23
	c0.569-1.073,1.151-1.979,1.151-3.106v-0.229h-0.828c0,0.142-0.052,0.244-0.13,0.311c-0.089,0.074-0.193,0.116-0.35,0.116
	c-0.193,0-0.387-0.134-0.622-0.26c-0.229-0.117-0.539-0.259-0.955-0.259c-0.504,0-0.93,0.092-1.252,0.245
	c-0.195,0.093-0.495,0.22-0.622,0.22c-0.091,0-0.193-0.142-0.22-0.399h-0.773v3.298h1.137c0-1.358,0.466-1.992,0.996-1.992
	c0.244,0,0.505,0.038,0.775,0.131c0.27,0.101,0.649,0.246,0.881,0.219l0.063,0.041c-0.803,1.252-2.161,3.725-2.161,6.143v0.338
	h1.774v-0.582h-0.004V79.053L61.153,79.053z M67.87,75.52c0-2.57,0.156-3.3,0.931-3.3c0.779,0,0.933,0.729,0.933,3.3
	c0,2.318-0.153,3.366-0.933,3.366C68.026,78.888,67.87,77.836,67.87,75.52z M68.801,79.717c1.892,0,2.755-1.66,2.755-4.193
	c0-2.55-1.139-4.129-2.755-4.129c-1.615,0-2.754,1.604-2.754,4.129C66.046,78.057,66.9,79.717,68.801,79.717z M3.274,59.438
	c0,1.065-0.184,1.736-0.742,1.852l-0.739,0.118v1.317h5.6v-1.317l-0.741-0.118c-0.58-0.115-0.763-0.786-0.763-1.852v-8.007
	c0-1.087,0.277-1.759,0.741-1.852l0.74-0.114v-1.319H1.793v1.319l0.739,0.114c0.462,0.093,0.742,0.765,0.742,1.852V59.438
	L3.274,59.438z M21.464,48.146v1.319l0.716,0.114c0.67,0.093,0.694,0.578,0.487,1.644l-0.996,5.625l-1.828-8.7h-1.988l-1.298,8.653
	l-1.295-5.762c-0.231-0.994-0.254-1.387,0.231-1.458l0.742-0.114v-1.319h-5.323v1.319l0.716,0.114
	c0.487,0.071,0.788,0.741,0.97,1.528l2.615,11.617h1.875l1.319-8.725l1.852,8.725h1.874l1.875-10.599
	c0.278-1.574,0.534-2.454,1.181-2.547l0.718-0.114v-1.321H21.464z M31.216,55.945l0.973-3.543h0.091l0.762,3.543H31.216z
	 M33.485,58.005l0.162,0.692c0.371,1.76,0.092,2.361-0.51,2.547l-0.601,0.163v1.317h5.693v-1.317l-0.648-0.255
	c-0.392-0.14-0.786-0.812-1.204-2.434l-2.73-10.573h-2.152l-2.662,9.835c-0.648,2.385-1.042,3.078-1.622,3.264l-0.507,0.163v1.317
	h4.905v-1.317l-0.601-0.163c-0.509-0.184-0.856-1.182-0.509-2.547l0.185-0.692H33.485z M42.792,59.438
	c0,1.065-0.187,1.736-0.741,1.852l-0.74,0.118v1.317h5.599v-1.317l-0.739-0.118c-0.579-0.115-0.764-0.786-0.764-1.852v-1.156
	l0.995-1.295l1.781,2.938c0.208,0.347,0.348,0.694,0.348,0.927c0,0.256-0.14,0.439-0.327,0.486l-0.507,0.069v1.319h5.923v-1.319
	l-0.831-0.118c-0.6-0.092-1.204-0.877-1.781-1.852l-2.823-4.697l2.893-3.703c0.65-0.832,1.112-1.408,1.436-1.458l0.761-0.114v-1.319
	H47.7v1.319l0.531,0.068c0.303,0.046,0.603,0.182,0.603,0.324c0,0.116-0.095,0.277-0.186,0.371L45.733,54
	c-0.069,0.115-0.208,0.231-0.324,0.231v-2.799c0-1.089,0.278-1.759,0.74-1.852l0.742-0.114v-1.321h-5.578v1.319l0.74,0.114
	c0.462,0.095,0.74,0.765,0.74,1.852L42.792,59.438L42.792,59.438z M58.419,59.438c0,1.065-0.185,1.736-0.741,1.852l-0.739,0.118
	v1.317h5.6v-1.317l-0.738-0.118c-0.578-0.115-0.765-0.786-0.765-1.852v-8.007c0-1.087,0.279-1.759,0.74-1.852l0.742-0.114v-1.319
	h-5.578v1.319l0.739,0.114c0.464,0.093,0.741,0.765,0.741,1.852V59.438z M70.397,51.431c0-1.087,0.276-1.759,0.764-1.852
	l0.715-0.114v-1.319h-5.577v1.319l0.741,0.114c0.463,0.093,0.741,0.765,0.741,1.852v8.007c0,1.063-0.186,1.736-0.741,1.852
	l-0.741,0.116v1.319h5.604v-1.319l-0.741-0.116c-0.578-0.115-0.763-0.788-0.763-1.852v-3.172h3.792v3.172
	c0,1.063-0.183,1.736-0.785,1.852l-0.718,0.116v1.319h5.576v-1.319l-0.719-0.116c-0.576-0.115-0.764-0.788-0.764-1.852v-8.007
	c0-1.089,0.278-1.759,0.764-1.852l0.719-0.114v-1.319h-5.576v1.319l0.718,0.114c0.508,0.093,0.785,0.765,0.785,1.852v2.801h-3.792
	L70.397,51.431L70.397,51.431z M85.803,55.945l0.969-3.543h0.094l0.768,3.543H85.803z M88.069,58.005l0.161,0.692
	c0.371,1.76,0.092,2.361-0.51,2.547l-0.599,0.163v1.317h5.69v-1.317l-0.652-0.255c-0.393-0.14-0.787-0.812-1.2-2.434l-2.731-10.573
	h-2.156l-2.661,9.835c-0.646,2.385-1.041,3.078-1.618,3.264l-0.509,0.163v1.317h4.903v-1.317l-0.602-0.163
	c-0.507-0.184-0.854-1.182-0.507-2.547l0.185-0.692H88.069z M99.093,51.431h0.046l4.051,11.294h2.685V51.431
	c0-1.087,0.279-1.759,0.764-1.852l0.716-0.114v-1.319h-4.441v1.319l0.741,0.114c0.463,0.093,0.739,0.765,0.739,1.852v5.021h-0.021
	l-3.055-8.306h-5.184v1.317l0.74,0.114c0.463,0.095,0.74,0.765,0.74,1.852v8.007c0,1.065-0.184,1.736-0.74,1.852l-0.74,0.118v1.317
	h4.235v-1.317l-0.51-0.118c-0.576-0.137-0.764-0.786-0.764-1.852v-8.005H99.093z M110.855,53.953h1.365V52.66
	c0-1.367,0.348-2.87,1.344-2.87c0.879,0,0.971,1.365,0.971,2.243v7.404c0,1.065-0.185,1.736-0.764,1.852l-0.74,0.118v1.317h5.601
	v-1.317l-0.72-0.118c-0.6-0.115-0.787-0.786-0.787-1.852v-7.404c0-0.88,0.094-2.243,0.973-2.243c0.996,0,1.344,1.503,1.344,2.87
	v1.293h1.365v-5.808h-9.951V53.953L110.855,53.953z M130.773,55.852v-1.643h-2.29v-3.012c0-1.062,0.347-1.618,1.526-1.618
	c1.088,0,2.01,0.901,2.01,2.636v0.975h1.461v-5.044h-9.096v1.319l0.74,0.114c0.466,0.093,0.741,0.765,0.741,1.852v8.007
	c0,1.063-0.185,1.758-0.741,1.852l-0.74,0.116v1.319h9.096v-5.23h-1.459v1.135c0,1.434-0.393,2.613-2.011,2.613
	c-1.181,0-1.525-0.67-1.525-1.598V55.85L130.773,55.852L130.773,55.852z M139.945,51.431h0.046l4.051,11.294h2.685V51.431
	c0-1.087,0.277-1.759,0.764-1.852l0.718-0.114v-1.319h-4.443v1.319l0.739,0.114c0.465,0.093,0.742,0.765,0.742,1.852v5.021h-0.023
	l-3.055-8.306h-5.185v1.317l0.741,0.114c0.463,0.095,0.743,0.765,0.743,1.852v8.007c0,1.065-0.187,1.736-0.743,1.852l-0.741,0.118
	v1.317h4.235v-1.317l-0.51-0.118c-0.574-0.137-0.762-0.786-0.762-1.852v-8.005H139.945z"/>
</svg>
