<?xml version="1.0" encoding="utf-8"?>
<!-- Generator: Adobe Illustrator 16.0.0, SVG Export Plug-In . SVG Version: 6.00 Build 0)  -->
<!DOCTYPE svg PUBLIC "-//W3C//DTD SVG 1.1//EN" "http://www.w3.org/Graphics/SVG/1.1/DTD/svg11.dtd">
<svg version="1.1" id="レイヤー_1" xmlns="http://www.w3.org/2000/svg" xmlns:xlink="http://www.w3.org/1999/xlink" x="0px"
	 y="0px" width="200px" height="50px" viewBox="10 0 200 50" enable-background="new 10 0 200 50" xml:space="preserve">
<g>
	<path fill="#A72126" d="M38.358,42.373c-3.837-1.182-2.717-2.38-2.717-2.38s1.273-1.64-0.712-1.593
		c-0.037,0-0.074-0.004-0.112-0.002c0.597-0.393,1.651-0.849,2.562-1.439c1.062-0.686,2.049-1.395,2.419-1.674
		c0.151,0.314,0.3,0.566,0.441,0.728c1.258,1.449,3.571,5.132,2.082,6.076C41.251,42.768,40.653,43.078,38.358,42.373z
		 M26.163,33.108c-0.575-0.494-0.892-1.118-1.2-1.523c-0.03-0.044-0.061-0.089-0.092-0.131c-0.186,0.184-0.495,0.414-0.744,0.586
		c0.023,0.05,0.05,0.103,0.073,0.149c0.197,0.412,0.572,1.122,1.098,1.772C25.522,33.734,25.846,33.414,26.163,33.108z
		 M29.767,41.881c-0.114,1.74,0.062,2.893-0.96,4.461c-0.62,0.953-1.967,0.857-3.855,1.127c-1.887,0.27-3.9,0.042-3.643-1.479
		c0.359-2.125,2.224-1.933,2.078-3.956c-0.192-2.676,0.05-4.688,2.514-7.422c0.224-0.209,0.873-0.893,1.27-1.285
		c0.592-0.557,1.205-1.093,1.813-1.594c1.736-1.429,3.396-2.567,4.234-3.096c0.77-0.48,2.471-1.305,4.099-1.71
		c0.812-0.203,1.605-0.306,2.254-0.203c1.328,0.206,2.097,0.399,2.558,0.61c0.697,0.322,1.171-0.543,1.289-0.789
		c0.546-3.417-0.08-7.445-1.883-10.181c-0.608-0.92-1.314-1.711-2.1-2.31c-0.212-0.162-0.427-0.317-0.642-0.467
		c-0.062-0.022-0.125-0.036-0.194-0.066c-1.142-0.508-2.491,0.613-2.899,1.097c-1.018,1.207-1.618,5.465-3.161,8.964
		c-1.204,2.731-4.958,5.189-7.499,6.954h0.002h-0.001c0.001,0,0.001,0,0.002,0h-0.001c0,0-0.367,0.219-0.536,0.377
		c0.001,0,0.002-0.002,0.003-0.002c0,0-0.002,0.002-0.003,0.002c-0.268,0.254-0.327,0.282-0.651,0.571
		c-0.333,0.365-0.518,0.708-0.752,0.993c-0.65,0.803-1.88,1.654-3.02,1.591c-0.451-0.022-0.882-0.159-1.261-0.347
		c-0.05,0.035-0.098,0.073-0.151,0.102c-0.104,0.062-0.215,0.113-0.327,0.167c-0.062,0.028-0.125,0.06-0.187,0.09l-0.18,0.094
		c-0.109,0.058-0.218,0.117-0.331,0.167c-0.112,0.051-0.227,0.086-0.343,0.122c-0.067,0.021-0.134,0.04-0.199,0.065
		c-0.118,0.046-0.237,0.076-0.355,0.106c-0.064,0.021-0.129,0.037-0.193,0.058l-0.186,0.061c-0.123,0.039-0.243,0.079-0.363,0.108
		c-0.192,0.046-0.38,0.084-0.565,0.11c-0.046,0.01-0.095,0.014-0.143,0.021c-0.093,0.006-0.185,0.008-0.276,0.012l-0.165,0.004
		c-0.207,0.013-0.399,0.019-0.585,0.004c-0.202-0.018-0.395-0.051-0.593-0.105c-0.248-0.067-0.426-0.146-0.579-0.249
		c-0.175-0.119-0.374-0.253-0.489-0.477c-0.105-0.211-0.158-0.444-0.148-0.682c0.006-0.189,0.055-0.405,0.139-0.634
		c0.062-0.164,0.156-0.314,0.247-0.459l0.047-0.076c0.098-0.158,0.215-0.312,0.346-0.472c0.039-0.05,0.077-0.101,0.114-0.149
		c0.074-0.105,0.152-0.217,0.247-0.309c0.083-0.084,0.182-0.151,0.284-0.223c0.061-0.041,0.122-0.083,0.178-0.131
		c0.047-0.041,0.094-0.086,0.14-0.127c0.093-0.086,0.188-0.176,0.292-0.251l0.144-0.112c0.1-0.081,0.204-0.162,0.313-0.233
		c0.156-0.103,0.322-0.203,0.49-0.302c0.099-0.059,0.207-0.103,0.318-0.143c0.069-0.025,0.143-0.055,0.209-0.088
		c0.171-0.089,0.341-0.174,0.512-0.249c0.067-0.031,0.132-0.063,0.196-0.095c0.107-0.053,0.214-0.104,0.325-0.145
		c0.182-0.068,0.364-0.129,0.543-0.184l0.133-0.043c0.143-0.047,0.279-0.092,0.418-0.122c0.131-0.034,0.264-0.052,0.395-0.065
		l0.176-0.021c0.069-0.014,0.137-0.023,0.205-0.039c0.126-0.025,0.25-0.05,0.372-0.06c0.155-0.008,0.293,0.017,0.417,0.036
		c0.059,0.01,0.119,0.02,0.176,0.023l0.15,0.009c0.148,0.007,0.303,0.017,0.453,0.056c0.176,0.052,0.343,0.129,0.5,0.225
		c0.533-0.238,0.685-0.538,1.165-1.18c0.108-0.144,0.22-0.303,0.333-0.463c0.544-0.701,1.401-2.123,1.544-2.372
		c0.457-0.686,1.151-1.689,1.06-2.33c-0.024-0.17-0.066-0.337-0.113-0.506c-0.212-0.199-0.499-0.345-0.662,0.077
		c-0.221,0.789-0.398,1.575-0.528,2.35l-0.004,0.002c-0.04,0.287-0.441,0.902-0.912,1.444c0.035-0.394,0.088-0.796,0.16-1.208l0,0
		c-0.662,0.146-1.339,0.243-2.004,0.316c-0.9,0.1-2.701-0.096-3.407-0.139c-1.2-0.074-1.67,0.267-2.576,0.219l0.375,3.056
		c0.04,0.335,0.001,0.509-0.13,0.561c-0.032,0.014-0.061,0.02-0.085,0.021c-0.043,0.002-0.071-0.012-0.078-0.018
		c-0.029-0.01-0.139-0.048-0.213-0.444l-0.613-3.289c-0.184-0.042-0.379-0.094-0.58-0.151l0.894,3.485
		c0.081,0.322,0.055,0.51-0.082,0.574c-0.034,0.015-0.068,0.022-0.095,0.022c-0.032,0-0.055-0.004-0.059-0.004
		c-0.132-0.036-0.225-0.245-0.281-0.417l-1.289-3.982c-0.911-0.369-1.707-0.853-1.742-1.306c-0.111-1.37,0.074-2.163,0.488-2.57
		l-0.409-1.26c-0.104-0.325,0.018-0.598,0.336-0.755c0.147-0.073,0.267-0.098,0.375-0.08c0.166,0.024,0.286,0.134,0.327,0.301
		l0.371,1.445c0.035,0,0.064-0.005,0.102-0.003c0.086,0.001,0.44,0.074,0.794,0.152l-0.35-1.881
		c-0.035-0.184,0.068-0.492,0.493-0.597c0.172-0.044,0.316-0.026,0.425,0.048c0.112,0.076,0.181,0.21,0.204,0.399l0.282,2.298
		c0.903,0.182,2.689,0.233,3.428,0.195h0.022c0.468,0.216,0.678,0.416,1.165,0.517c0.199,0.076,1.623,0.323,2.266,0.21
		c1.535-0.266,2.029-0.667,2.298-0.898c0.034-0.03,0.061-0.072,0.04-0.116c-0.02-0.044-0.073-0.062-0.117-0.042l-0.007,0.002
		c-0.432,0.2-0.872,0.388-1.338,0.479c-0.229,0.064-0.467,0.084-0.7,0.12c-0.235,0.012-0.469,0.036-0.707,0.023
		c-0.472-0.008-0.943-0.065-1.402-0.179c-0.396-0.098-1.125-0.394-1.306-0.469c-0.781-0.417-1.46-1.068-2.057-1.98
		c-1.423-2.174-1.782-4.372-1.137-6.9c-0.854-0.128-1.771-0.521-1.445-1.773c0.256-0.988,1.578-1.86,2.746-1.135
		c0.316-0.458,0.649-0.852,0.989-1.173c-0.084-0.096-0.128-0.149-0.276-0.313c-0.208-0.235-0.115-0.383-0.413-0.484
		c-0.456-0.157-0.533,0.17-0.96,0.01c-0.214-0.083-0.437-0.248-0.56-0.495c-0.097-0.191-0.147-0.444-0.082-0.748
		c0.071-0.333,0.272-0.522,0.451-0.688c0.229-0.213,0.442-0.375,0.469-0.657c0.02-0.216,0.04-0.423,0.079-0.612
		c0.042-0.212,0.104-0.412,0.202-0.584c0.097-0.172,0.229-0.333,0.416-0.459c0.265-0.182,0.496-0.267,0.695-0.311
		c0.283-0.064,0.523-0.032,0.753,0.034c0.234,0.069,0.459,0.191,0.734,0.211c0.215,0.016,0.419-0.038,0.627-0.088
		c0.197-0.046,0.396-0.094,0.622-0.074c0.18,0.015,0.385,0.05,0.603,0.177c0.219,0.128,0.362,0.289,0.464,0.446
		c0.125,0.193,0.191,0.402,0.198,0.609c0.007,0.222-0.048,0.442-0.099,0.639c-0.073,0.276-0.181,0.473-0.304,0.603
		c-0.273,0.293-0.494-0.032-0.597,0.291c-0.077,0.243,0.067,0.245,0.15,0.484c0.064,0.185,0.077,0.231,0.117,0.352
		c0.183-0.046,0.366-0.09,0.551-0.125c0.019-0.056,0.023-0.107,0.048-0.166c0.459-1.089,2.181-1.971,3.254-0.356
		c0.119,0.178,0.188,0.35,0.224,0.519c0.308,0.063,0.613,0.141,0.906,0.237c0.71,0.236,1.31,0.563,1.781,0.958
		c1.168,0.322,5.251,1.504,9.322,3.451c1.018,0.488,2.663,1.637,3.397,2.364c0.034,0.024,0.071,0.05,0.104,0.075
		c2.086,1.597,3.522,4.698,4.179,7.891l0.008-0.004c0,0,0.223,0.622,0.625,0.44c0.516-0.231,1.305-0.37,2.344,0.253
		c1.478,0.886,0.527,4.166-1.125,4.377c-0.968,0.124-1.566,0.708-1.678,1.42c-0.003,0.021-0.01,0.021-0.017,0.006
		c-0.271,1.453-0.768,2.792-1.557,3.872l-0.014,0.002c-0.745,1.215-1.858,2.342-3.137,3.357c-0.106,0.061-1.435,1.096-2.998,1.978
		c-1.151,0.648-2.313,1.342-2.906,1.622c-0.729,0.35-1.413,0.658-2.013,0.91C31.43,39.378,29.918,39.603,29.767,41.881z
		 M21.059,30.319c0.005-0.134-0.023-0.253-0.092-0.389c-0.081-0.159-0.153-0.253-0.25-0.313c-0.128-0.089-0.269-0.152-0.418-0.193
		c-0.092-0.025-0.209-0.031-0.333-0.037L19.8,29.375c-0.073-0.006-0.148-0.019-0.224-0.028c-0.105-0.02-0.203-0.034-0.296-0.028
		c-0.008,0-0.016,0.001-0.022,0.001c-0.088,0.01-0.176,0.027-0.267,0.048c-0.077,0.016-0.154,0.031-0.234,0.045l-0.194,0.023
		c-0.111,0.01-0.223,0.023-0.335,0.051c-0.125,0.026-0.25,0.067-0.377,0.107l-0.137,0.045c-0.168,0.053-0.34,0.104-0.512,0.172
		c-0.094,0.036-0.185,0.082-0.275,0.128c-0.071,0.032-0.143,0.069-0.217,0.102c-0.163,0.068-0.323,0.149-0.485,0.231
		c-0.085,0.044-0.174,0.08-0.262,0.113c-0.083,0.033-0.166,0.062-0.24,0.104c-0.159,0.095-0.315,0.188-0.464,0.286
		c-0.097,0.062-0.185,0.135-0.274,0.205l-0.156,0.122c-0.09,0.065-0.169,0.144-0.249,0.216c-0.051,0.049-0.102,0.098-0.155,0.142
		c-0.072,0.06-0.149,0.114-0.226,0.167c-0.071,0.052-0.144,0.1-0.203,0.156c-0.074,0.073-0.133,0.158-0.191,0.239
		c-0.044,0.06-0.088,0.122-0.134,0.183c-0.113,0.14-0.219,0.273-0.305,0.415l-0.049,0.079c-0.078,0.122-0.152,0.239-0.198,0.359
		c-0.063,0.169-0.1,0.327-0.104,0.458c-0.006,0.144,0.024,0.287,0.089,0.411c0.05,0.102,0.175,0.186,0.309,0.273
		c0.099,0.068,0.227,0.123,0.417,0.175c0.164,0.048,0.322,0.074,0.487,0.088c0.162,0.014,0.332,0.01,0.515-0.004l0.184-0.004
		c0.112-0.004,0.227-0.004,0.345-0.021c0.17-0.025,0.344-0.062,0.522-0.104c0.105-0.021,0.209-0.06,0.314-0.096l0.199-0.063
		c0.068-0.021,0.139-0.04,0.21-0.062c0.102-0.024,0.205-0.055,0.306-0.094c0.075-0.026,0.15-0.052,0.228-0.074
		c0.096-0.031,0.192-0.062,0.285-0.102c0.099-0.046,0.195-0.098,0.293-0.147l0.189-0.102c0.066-0.034,0.135-0.065,0.204-0.101
		c0.096-0.045,0.194-0.091,0.284-0.143c0.088-0.05,0.169-0.109,0.249-0.168c0.066-0.053,0.132-0.1,0.198-0.143
		c0.074-0.05,0.15-0.094,0.226-0.135c0.03-0.02,0.057-0.037,0.085-0.055c-0.473-0.092-0.717-0.262-0.818-0.463
		c-0.089,0.062-0.181,0.123-0.281,0.182l-0.258,0.159c-0.116,0.074-0.235,0.151-0.362,0.22c-0.172,0.087-0.343,0.163-0.51,0.229
		c-0.137,0.055-0.274,0.094-0.409,0.126l-0.127,0.036c-0.217,0.062-0.392,0.102-0.549,0.123c-0.113,0.016-0.213,0.026-0.305,0.036
		c-0.102,0.008-0.194,0.01-0.281-0.004c-0.278-0.038-0.487-0.17-0.585-0.365c-0.099-0.195-0.08-0.44,0.054-0.689
		c0.084-0.153,0.205-0.315,0.351-0.469c0.113-0.119,0.247-0.226,0.388-0.334l0.045-0.034c0.139-0.107,0.292-0.214,0.458-0.317
		l0.078-0.052c0.126-0.08,0.258-0.163,0.398-0.234c0.169-0.088,0.339-0.172,0.506-0.238c0.183-0.071,0.36-0.137,0.531-0.184
		c0.156-0.045,0.31-0.06,0.444-0.077l0.11-0.016c0.218-0.028,0.414-0.032,0.585-0.008c0.103,0.014,0.393,0.065,0.55,0.274
		c0.017-0.004,0.031-0.012,0.046-0.014c0.182-0.048,0.379-0.092,0.555-0.104c0.309-0.025,0.288-0.076,0.565-0.039
		c0.306,0.061,0.498,0.189,0.573,0.313c0.007-0.018,0.015-0.029,0.019-0.043l0.036-0.103C21.022,30.612,21.055,30.467,21.059,30.319
		z M18.162,32.036c-0.017-0.193,0.076-0.383,0.187-0.566c0.117-0.195,0.226-0.402,0.346-0.511c0.024-0.02,0.063-0.033,0.095-0.054
		c-0.056-0.025-0.127-0.046-0.222-0.06c-0.103-0.014-0.222-0.02-0.351-0.006c-0.042,0.004-0.085,0.01-0.129,0.016l-0.117,0.013
		c-0.126,0.018-0.258,0.031-0.388,0.069c-0.16,0.045-0.326,0.104-0.494,0.172c-0.157,0.062-0.315,0.142-0.475,0.223
		c-0.13,0.064-0.251,0.144-0.367,0.221l-0.082,0.051c-0.155,0.1-0.298,0.195-0.428,0.299l-0.045,0.029
		c-0.13,0.103-0.252,0.197-0.347,0.296c-0.124,0.13-0.226,0.265-0.291,0.389c-0.077,0.142-0.094,0.263-0.051,0.345
		c0.043,0.086,0.151,0.144,0.306,0.166c0.115,0.016,0.266-0.004,0.441-0.026c0.181-0.022,0.338-0.06,0.538-0.118l0.132-0.037
		c0.12-0.028,0.244-0.062,0.368-0.112c0.157-0.062,0.317-0.134,0.478-0.217c0.117-0.06,0.224-0.128,0.329-0.197l0.271-0.168
		c0.101-0.06,0.199-0.116,0.286-0.184c0.007-0.004,0.01-0.01,0.018-0.018C18.168,32.044,18.163,32.04,18.162,32.036z M27.428,8.678
		c-0.315-0.71-1.094-1.302-2.194-1.667c-0.254-0.083-0.52-0.142-0.789-0.195c-0.359,0.719-1.344,1.203-1.972,1.126
		c-0.62-0.073-1.296-0.446-1.477-1.093c-0.016,0.004-0.031,0.004-0.046,0.01c-0.303,0.065-0.597,0.16-0.89,0.258
		c-0.093,0.033-0.186,0.062-0.279,0.096c-0.125,0.046-0.245,0.1-0.367,0.151c-0.252,0.109-0.51,0.211-0.746,0.346
		c-0.064,0.036-0.129,0.081-0.194,0.123c-0.048,0.03-0.094,0.06-0.142,0.095c-0.082,0.058-0.163,0.122-0.245,0.189
		c-0.101,0.088-0.201,0.176-0.305,0.277c-0.129,0.124-0.251,0.269-0.378,0.416c-0.006,0.006-0.019,0.008-0.029,0.008
		c-0.191,0.22-0.375,0.478-0.553,0.75c0.35,0.61-0.212,1.711-0.98,2.159c-0.029,0.096-0.063,0.185-0.091,0.282
		c-0.603,2.312-0.28,4.312,1.017,6.296c0.081,0.126,0.165,0.243,0.25,0.358l0,0l0,0l-0.002-0.012
		c-0.061-0.737,0.18-2.261,1.098-2.386c0.338-0.046,0.534,0.185,0.616,0.466c0.124,0.427,0.333,1.665-0.109,2.231
		c-0.293,0.375-0.665,0.484-0.978,0.416c0,0,0,0,0.001,0c1.246,1.197,2.819,1.404,5.124,0.735c2.05-0.592,3.072-1.85,3.869-3.119
		C27.548,15.542,28.29,10.624,27.428,8.678z M23.141,18.819c-0.43,0.4-1.1,0.066-1.256-0.021c0.319-0.307,0.525-0.909,0.083-1.004
		c-0.737-0.157-1.095,0.031-1.446,0.271c-0.373,0.257-0.033,1.026,0.821,0.95c0.036,0.218,0.054,0.65-0.272,0.736
		c-0.142,0.037-0.498,0.041-0.506,0.232c-0.007,0.167,0.481,0.143,0.604,0.116c0.229-0.044,0.453-0.128,0.581-0.345
		c0.02-0.03,0.03-0.064,0.045-0.098v0.01c0,0,0.136-0.203,0.444-0.182l-0.006-0.002c0.094,0.02,0.19,0.036,0.293,0.04
		c0.13,0.006,0.267-0.002,0.397-0.044c0.472-0.157,0.597-0.778,0.472-0.854C23.321,18.578,23.264,18.706,23.141,18.819z
		 M21.598,14.317c-1.482,1.075,0.903,2.473,1.939,2.601c1.037,0.126,1.956-0.924,0.946-1.861
		C22.853,13.547,21.598,14.317,21.598,14.317z M25.042,30.535c-0.002,0.002-0.363,0.217-0.532,0.374
		C24.679,30.789,24.857,30.664,25.042,30.535z M25.044,30.535c0,0-0.001,0-0.002,0c-0.002,0.002-0.363,0.217-0.532,0.374
		c-0.001,0-0.002,0.001-0.003,0.001C24.676,30.754,25.043,30.535,25.044,30.535L25.044,30.535z M63.371,35.295v-2.508h-0.654
		c-0.093,0.092-0.2,0.199-0.36,0.199c-0.2,0-0.4-0.066-0.612-0.135c-0.253-0.082-0.693-0.158-1.106-0.158
		c-1.321,0-2.401,0.878-2.401,2.293c0,1.331,0.48,2.081,1.68,2.588L60.958,38c0.441,0.186,1.146,0.51,1.146,1.27
		c0,0.533-0.413,1.011-0.973,1.011c-0.906,0-1.572-0.438-1.907-0.972c-0.213-0.336-0.347-0.629-0.414-0.99h-0.667v2.869h0.667
		c0.121-0.239,0.267-0.508,0.48-0.508c0.214,0,0.454,0.121,0.76,0.269c0.293,0.142,0.748,0.319,1.254,0.319
		c1.36,0,2.399-1.016,2.399-2.521c0-1.6-0.773-2.32-2.521-2.84c-1.013-0.293-1.493-0.535-1.479-1.291
		c0-0.521,0.347-1.094,1.094-1.094c0.572,0,1.226,0.438,1.466,0.748c0.2,0.254,0.359,0.629,0.453,1.027L63.371,35.295L63.371,35.295
		z M67.784,39.293c0,0.613-0.107,1.002-0.427,1.069l-0.429,0.062v0.762h3.227v-0.762l-0.425-0.062
		c-0.334-0.067-0.441-0.456-0.441-1.069V34.68c0-0.627,0.161-1.012,0.427-1.066l0.427-0.066v-0.758h-3.214v0.758l0.428,0.066
		c0.266,0.055,0.428,0.439,0.428,1.066L67.784,39.293L67.784,39.293z M74.941,34.68h0.025l2.333,6.508h1.547V34.68
		c0-0.627,0.16-1.012,0.439-1.066l0.414-0.066v-0.758h-2.56v0.758l0.428,0.066c0.266,0.055,0.426,0.439,0.426,1.066v2.895h-0.013
		l-1.76-4.787h-2.987v0.758l0.427,0.065c0.267,0.054,0.426,0.438,0.426,1.066v4.614c0,0.611-0.106,1-0.426,1.067l-0.427,0.063v0.76
		h2.44v-0.76l-0.293-0.062c-0.333-0.081-0.439-0.456-0.439-1.069L74.941,34.68L74.941,34.68z M87.722,36.706v-3.959h-0.908
		c0,0.347-0.079,0.427-0.214,0.427c-0.158,0-0.425-0.107-0.638-0.229c-0.347-0.174-0.694-0.252-1.081-0.252
		c-1.679,0-2.759,1.627-2.759,3.028v2.212c0,1.627,0.799,3.336,2.906,3.336c1.933,0,2.694-1.428,2.694-2.856H86.35
		c0,1.481-0.479,2.003-1.281,2.003c-0.787,0-1.146-0.775-1.146-1.828v-3.545c0-0.748,0.161-1.48,0.96-1.48
		c1.04,0,1.467,1.824,1.467,3.146L87.722,36.706L87.722,36.706z M94.542,37.229V36.28h-1.32v-1.734c0-0.612,0.2-0.933,0.88-0.933
		c0.627,0,1.159,0.52,1.159,1.52v0.561h0.841v-2.906h-5.242v0.758l0.427,0.065c0.266,0.054,0.428,0.438,0.428,1.066v4.614
		c0,0.611-0.107,1.012-0.428,1.067l-0.427,0.063v0.76h5.242v-3.014h-0.841v0.655c0,0.825-0.225,1.505-1.159,1.505
		c-0.68,0-0.88-0.389-0.88-0.919v-2.187h1.32V37.229z M104.871,41.188v-0.762l-0.427-0.063c-0.346-0.067-0.453-0.456-0.453-1.067
		v-6.508h-0.987c-0.32,0.706-0.787,0.934-1.468,0.934h-0.293v0.895h1.254v4.676c0,0.613-0.093,1.002-0.441,1.069l-0.414,0.062v0.76
		L104.871,41.188L104.871,41.188z M109.941,33.547c0.586,0,0.945,0.654,0.945,1.695c0,1.04-0.359,1.545-0.945,1.545
		c-0.6,0-0.96-0.507-0.96-1.545C108.982,34.201,109.314,33.547,109.941,33.547z M109.82,41.27c1.814,0,3.08-1.375,3.08-4.244
		c0-2.676-1.158-4.332-3.014-4.332c-1.277,0-2.49,0.631-2.49,2.735c0,1.664,1.199,2.426,2.186,2.426
		c0.586,0,1.094-0.225,1.425-0.667c0.122,1.48-0.093,3.238-1.241,3.238c-0.678,0-1.051-0.346-1.051-0.516
		c0-0.16,0.039-0.306,0.184-0.43c0.177-0.145,0.281-0.387,0.281-0.677s-0.281-0.653-0.838-0.653c-0.547,0-0.789,0.598-0.789,1.226
		C107.555,40.548,108.701,41.27,109.82,41.27z M119.292,40.586c0-1.934,0.6-3.241,1.174-4.359c0.586-1.107,1.187-2.04,1.187-3.202
		v-0.237h-0.854c0,0.146-0.054,0.252-0.134,0.319c-0.092,0.078-0.199,0.121-0.36,0.121c-0.199,0-0.399-0.138-0.641-0.267
		c-0.236-0.121-0.557-0.268-0.984-0.268c-0.521,0-0.959,0.096-1.291,0.252c-0.201,0.098-0.51,0.229-0.641,0.229
		c-0.094,0-0.199-0.147-0.226-0.414h-0.798v3.4h1.173c0-1.4,0.48-2.055,1.026-2.055c0.252,0,0.521,0.041,0.8,0.137
		c0.277,0.104,0.668,0.252,0.907,0.225l0.065,0.041c-0.827,1.292-2.227,3.84-2.227,6.332v0.348h1.828v-0.6h-0.004v-0.002H119.292z
		 M126.215,36.945c0-2.651,0.16-3.4,0.959-3.4c0.803,0,0.961,0.749,0.961,3.4c0,2.389-0.158,3.469-0.961,3.469
		C126.375,40.416,126.215,39.332,126.215,36.945z M127.174,41.27c1.949,0,2.84-1.709,2.84-4.322c0-2.627-1.174-4.254-2.84-4.254
		c-1.664,0-2.839,1.654-2.839,4.254C124.335,39.561,125.215,41.27,127.174,41.27z M59.642,20.371c0,1.097-0.19,1.789-0.765,1.909
		l-0.762,0.12v1.358h5.772v-1.358l-0.764-0.12c-0.597-0.12-0.786-0.812-0.786-1.909v-8.252c0-1.122,0.286-1.812,0.763-1.908
		l0.763-0.119V8.732h-5.748v1.359l0.762,0.119c0.477,0.097,0.765,0.787,0.765,1.908L59.642,20.371L59.642,20.371z M78.388,8.732
		v1.359l0.738,0.119c0.691,0.097,0.715,0.596,0.502,1.694L78.601,17.7l-1.883-8.966h-2.05l-1.337,8.921l-1.335-5.94
		c-0.238-1.025-0.262-1.43,0.239-1.502l0.764-0.119v-1.36h-5.486v1.359l0.738,0.119c0.502,0.072,0.812,0.764,1,1.575l2.695,11.972
		h1.932l1.36-8.991l1.908,8.991h1.931l1.932-10.923c0.286-1.621,0.55-2.527,1.217-2.624l0.74-0.119V8.732H78.388z M88.439,16.771
		l1.003-3.651h0.094l0.786,3.651H88.439z M90.777,18.894l0.167,0.714c0.382,1.814,0.095,2.432-0.525,2.625l-0.62,0.167v1.358h5.867
		V22.4l-0.668-0.264c-0.404-0.143-0.81-0.835-1.241-2.505L90.943,8.732h-2.218l-2.743,10.137c-0.668,2.456-1.074,3.171-1.671,3.364
		L83.788,22.4v1.358h5.056V22.4l-0.62-0.167c-0.524-0.191-0.882-1.217-0.524-2.625l0.19-0.714H90.777z M100.368,20.371
		c0,1.097-0.192,1.789-0.763,1.909l-0.762,0.12v1.358h5.771v-1.358l-0.763-0.12c-0.596-0.12-0.787-0.812-0.787-1.909v-1.192
		l1.026-1.336l1.836,3.029c0.215,0.359,0.358,0.716,0.358,0.956c0,0.264-0.144,0.453-0.337,0.5l-0.522,0.073v1.358h6.104V22.4
		l-0.856-0.12c-0.619-0.097-1.242-0.906-1.836-1.909l-2.909-4.841l2.981-3.817c0.669-0.858,1.145-1.452,1.479-1.502l0.785-0.119
		v-1.36h-5.746v1.359l0.547,0.072c0.312,0.047,0.621,0.189,0.621,0.334c0,0.119-0.097,0.285-0.19,0.382l-3.004,3.887
		c-0.072,0.119-0.216,0.239-0.334,0.239V12.12c0-1.122,0.286-1.812,0.763-1.908l0.764-0.119v-1.36h-5.748v1.359l0.762,0.119
		c0.477,0.097,0.763,0.787,0.763,1.908L100.368,20.371L100.368,20.371z M116.475,20.371c0,1.097-0.191,1.789-0.764,1.909
		l-0.762,0.12v1.358h5.771v-1.358l-0.76-0.12c-0.595-0.12-0.788-0.812-0.788-1.909v-8.252c0-1.122,0.287-1.812,0.762-1.908
		l0.764-0.119V8.732h-5.749v1.359l0.762,0.119c0.479,0.097,0.764,0.787,0.764,1.908V20.371z M128.818,12.119
		c0-1.122,0.285-1.812,0.787-1.908l0.738-0.119V8.732h-5.748v1.359l0.764,0.119c0.477,0.097,0.764,0.787,0.764,1.908v8.252
		c0,1.097-0.191,1.789-0.764,1.909l-0.764,0.12v1.358h5.776v-1.358l-0.764-0.12c-0.595-0.12-0.787-0.812-0.787-1.909v-3.268h3.909
		v3.268c0,1.097-0.189,1.789-0.809,1.909l-0.74,0.12v1.358h5.746v-1.358l-0.741-0.12c-0.593-0.12-0.787-0.812-0.787-1.909v-8.252
		c0-1.122,0.287-1.812,0.787-1.908l0.741-0.119V8.732h-5.746v1.359l0.74,0.119c0.523,0.097,0.809,0.787,0.809,1.908v2.887h-3.909
		L128.818,12.119L128.818,12.119z M144.695,16.771l1-3.651h0.096l0.791,3.651H144.695z M147.031,18.894l0.166,0.714
		c0.383,1.814,0.096,2.432-0.523,2.625l-0.619,0.167v1.358h5.866V22.4l-0.673-0.264c-0.405-0.143-0.811-0.835-1.237-2.505
		l-2.816-10.899h-2.22l-2.743,10.137c-0.668,2.456-1.073,3.171-1.669,3.364L140.04,22.4v1.358h5.054V22.4l-0.621-0.167
		c-0.523-0.191-0.88-1.217-0.523-2.625l0.191-0.714H147.031z M158.392,12.119h0.05l4.174,11.639h2.766V12.119
		c0-1.122,0.287-1.812,0.787-1.908l0.738-0.119V8.732h-4.578v1.359l0.764,0.119c0.477,0.097,0.762,0.787,0.762,1.908v5.174h-0.023
		l-3.148-8.56h-5.342v1.358l0.763,0.119c0.477,0.097,0.764,0.787,0.764,1.908v8.252c0,1.097-0.189,1.789-0.764,1.909l-0.763,0.12
		v1.358h4.365v-1.358l-0.526-0.12c-0.593-0.143-0.787-0.812-0.787-1.909V12.119z M170.516,14.719h1.406v-1.334
		c0-1.409,0.359-2.958,1.384-2.958c0.907,0,1.003,1.407,1.003,2.313v7.631c0,1.097-0.191,1.789-0.787,1.909l-0.764,0.12v1.358h5.771
		v-1.358l-0.74-0.12c-0.618-0.12-0.81-0.812-0.81-1.909V12.74c0-0.908,0.096-2.313,1.001-2.313c1.026,0,1.384,1.549,1.384,2.958
		v1.334h1.407V8.732h-10.256V14.719L170.516,14.719z M191.043,16.675v-1.694h-2.359v-3.102c0-1.096,0.357-1.668,1.571-1.668
		c1.123,0,2.074,0.929,2.074,2.717v1.003h1.504V8.732h-9.374v1.359l0.764,0.119c0.479,0.097,0.764,0.787,0.764,1.908v8.252
		c0,1.097-0.191,1.812-0.764,1.909l-0.764,0.12v1.358h9.375v-5.39h-1.503v1.169c0,1.479-0.405,2.695-2.074,2.695
		c-1.216,0-1.571-0.692-1.571-1.647v-3.911L191.043,16.675L191.043,16.675z M200.496,12.119h0.048l4.175,11.639h2.766V12.119
		c0-1.122,0.285-1.812,0.787-1.908l0.739-0.119V8.732h-4.579v1.359l0.762,0.119c0.479,0.097,0.764,0.787,0.764,1.908v5.174h-0.023
		l-3.148-8.56h-5.343v1.358l0.764,0.119c0.477,0.097,0.764,0.787,0.764,1.908v8.252c0,1.097-0.191,1.789-0.764,1.909l-0.764,0.12
		v1.358h4.364v-1.358l-0.524-0.12c-0.592-0.143-0.786-0.812-0.786-1.909V12.119z"/>
</g>
</svg>
