<?xml version="1.0" encoding="utf-8"?>
<!-- Generator: Adobe Illustrator 16.0.0, SVG Export Plug-In . SVG Version: 6.00 Build 0)  -->
<!DOCTYPE svg PUBLIC "-//W3C//DTD SVG 1.1//EN" "http://www.w3.org/Graphics/SVG/1.1/DTD/svg11.dtd">
<svg version="1.1" id="レイヤー_1" xmlns="http://www.w3.org/2000/svg" xmlns:xlink="http://www.w3.org/1999/xlink" x="0px"
	 y="0px" width="120px" height="230px" viewBox="0 0 120 230" enable-background="new 0 0 120 230" xml:space="preserve">
<g>
	<path fill="#A72126" d="M53.713,157.07v-4.002h-1.335l0.001-5.338c0-0.734-0.601-1.336-1.334-1.336H23.023
		c-0.735,0-1.335,0.602-1.335,1.336v9.34H53.713z M28.361,150.398h17.347v2.67H28.361V150.398z M52.379,117.045
		c0.734,0,1.334,0.6,1.334,1.332v3.996h1.334v2.674h-8.006v-3.338h-7.339v3.338H33.03v-6.674c0-0.732,0.602-1.332,1.335-1.332
		L52.379,117.045z M10.531,175.766v0.002l0.444-1.692H9.16v-5.361h19.87v5.361h-1.817l0.446,1.692v-0.002
		c0.187,0.709,0.938,1.291,1.673,1.291h0.505v4.979h-5.865c-0.732,0-1.488-0.58-1.674-1.289l-1.757-6.672h-2.892l-1.757,6.672
		c-0.187,0.709-0.941,1.289-1.674,1.289H8.353v-4.979h0.503C9.59,177.057,10.344,176.475,10.531,175.766z M8.345,157.07v-4.98h1.039
		c0.733,0,1.487-0.58,1.672-1.289l1.161-4.406c0.261-0.987-0.469-1.332-1.202-1.332h-2.67v-6.006h46.704v6.006H22.355
		c-1.142,0-1.846,0.246-2.131,1.332h-0.002l-2.471,9.388c-0.187,0.709-0.94,1.289-1.673,1.289L8.345,157.07L8.345,157.07z
		 M33.03,137.436h20.684v-4.004h-2.371l0.815-3.051h1.556v-4.004H33.03v4.004h1.558l0.813,3.051H33.03V137.436z M46.152,130.381
		l-0.814,3.051h-3.931l-0.815-3.051H46.152z M33.037,168.713c-0.733,0-1.332,0.6-1.332,1.334v32.691
		c0,0.733-0.601,1.336-1.335,1.336H15.025v-2.021h14.676v-17.329c0-0.732-0.599-1.337-1.332-1.337H9.688
		c-0.734,0-1.335,0.604-1.335,1.337v22.686c0,0.732,0.601,1.334,1.335,1.334h27.355c0.733,0,1.333-0.602,1.333-1.334v-33.359h16.679
		v-5.338H33.037z M15.025,188.711h8.006v1.342h-8.006V188.711z M15.025,195.398h8.006v1.336h-8.006V195.398z M21.688,124.447H19.02
		v-1.771h2.668V124.447z M30.358,118.379c0-0.734-0.6-1.334-1.333-1.334H11.646c-0.716,0.02-1.297,0.609-1.297,1.33v7.035H8.345
		v4.004h2.004l-0.001,1.637c0,0.732-0.601,1.334-1.336,1.334H8.346l-0.001,5.051h7.339c0.734,0,1.334-0.602,1.334-1.336v-6.686
		h6.671v8.021h6.669v-8.021h1.339v-4.004h-1.339V118.379z M23.689,124.375v1.035h-6.671v-1.035v-2.664h6.671V124.375z
		 M19.02,135.055v-4.674h2.668v4.674H19.02z M53.721,177.385c0-0.731-0.6-1.332-1.334-1.332H42.378
		c-0.733,0-1.333,0.598-1.334,1.332v26.688H39.71v4.672h15.345v-4.672h-1.334V177.385z M48.659,202.74
		c0,0.731-0.6,1.332-1.333,1.332c-0.735,0-1.335-0.601-1.335-1.332v-18.68c0-0.734,0.6-1.334,1.335-1.334
		c0.734,0,1.333,0.6,1.333,1.334V202.74z M73.619,129.049v16.014c0,0.732,0.6,1.332,1.334,1.332h0.668v5.009H64.945v-5.009h0.668
		c0.731,0,1.334-0.6,1.334-1.332v-16.014h-2.002v-5.338h2.002v-3.336h6.672v3.336h2.02v5.338H73.619z M108.986,117.039h2.67v9.988
		h-5.098l0.01,22.037c0,0.733,0.602,1.334,1.336,1.334h3.744v6.674h-10.355c-0.732,0-1.334-0.604-1.334-1.334v-28.711H85.627v6.725
		h10.676c0.734,0,1.334,0.602,1.334,1.338v15.309c0,0.734-0.6,1.337-1.334,1.337h-9.387v-4.673h3.383c0.732,0,1.334-0.6,1.334-1.334
		v-5.336h-6.006l-0.006,15.347c0,0.729-0.602,1.334-1.332,1.334h-7.336v-4.982h0.668c0.734,0,1.334-0.6,1.334-1.334v-29.028
		c0-0.736,0.602-1.336,1.336-1.336h19.668l0.002-3.353l6.598,0.002v3.351h2.429L108.986,117.039L108.986,117.039z M94.977,168.713
		h-6.672v2.67h-19.35c-0.732,0-1.334,0.6-1.334,1.332v29.713c0,0.736-0.6,1.336-1.334,1.336h-1.334v4.98h8.006
		c0.654,0,1.199-0.479,1.311-1.104v-29.588h14.033v12.683h-9.338c-0.736,0-1.336,0.602-1.336,1.336v16.672h32.025v-6.004h-1.336
		V192.07c0-0.734-0.601-1.336-1.332-1.336h-12.01v-3.672h12.01v-5.341h-12.01v-3.67h16.68v-6.67h-16.68V168.713L94.977,168.713z
		 M101.648,196.734v6.004H84.301v-6.004H101.648z M44.367,223.219h2.04v0.605l-0.329,0.053c-0.223,0.043-0.352,0.352-0.352,0.85
		v5.188h-1.233l-1.859-5.188h-0.021v3.681c0,0.487,0.085,0.787,0.351,0.848l0.233,0.056v0.604h-1.944v-0.604l0.341-0.056
		c0.253-0.051,0.339-0.358,0.339-0.848v-3.681c0-0.498-0.128-0.807-0.339-0.85l-0.341-0.053v-0.605h2.38l1.405,3.816h0.01v-2.309
		c0-0.498-0.126-0.808-0.341-0.851l-0.338-0.053L44.367,223.219L44.367,223.219z M32.107,227.971c0,1.199-0.829,2.006-1.914,2.006
		c-0.403,0-0.766-0.137-0.999-0.254c-0.244-0.117-0.437-0.213-0.605-0.213c-0.171,0-0.288,0.213-0.383,0.404h-0.531v-2.285h0.531
		c0.054,0.287,0.16,0.521,0.331,0.785c0.265,0.428,0.794,0.777,1.519,0.777c0.446,0,0.777-0.386,0.777-0.81
		c0-0.604-0.564-0.858-0.916-1.008l-0.829-0.342c-0.957-0.404-1.339-0.998-1.339-2.062c0-1.127,0.861-1.83,1.913-1.83
		c0.329,0,0.68,0.066,0.883,0.129c0.171,0.052,0.329,0.105,0.488,0.105c0.128,0,0.214-0.084,0.288-0.158h0.521v1.998H31.32
		c-0.073-0.32-0.203-0.617-0.361-0.818c-0.192-0.246-0.712-0.596-1.169-0.596c-0.596,0-0.874,0.457-0.874,0.871
		c-0.009,0.607,0.374,0.797,1.181,1.031C31.49,226.119,32.107,226.693,32.107,227.971z M53.632,223.188h0.723v3.154h-1.096
		c0-1.051-0.339-2.508-1.168-2.508c-0.637,0-0.766,0.584-0.766,1.18v2.83c0,0.836,0.287,1.453,0.916,1.453
		c0.636,0,1.019-0.414,1.019-1.594h1.096c0,1.137-0.607,2.273-2.146,2.273c-1.68,0-2.319-1.359-2.319-2.656v-1.765
		c0-1.114,0.863-2.411,2.202-2.411c0.31,0,0.584,0.063,0.861,0.2c0.169,0.097,0.382,0.183,0.51,0.183
		C53.568,223.527,53.632,223.463,53.632,223.188z M37.683,229.254l0.34,0.055v0.605h-2.572v-0.605l0.34-0.055
		c0.255-0.051,0.34-0.359,0.34-0.848v-3.68c0-0.498-0.128-0.808-0.34-0.851l-0.34-0.053v-0.605h2.561v0.605l-0.339,0.053
		c-0.214,0.043-0.341,0.353-0.341,0.851v3.68C37.333,228.895,37.419,229.203,37.683,229.254z M73.955,223.143
		c-1.021,0-1.988,0.5-1.988,2.181c0,1.33,0.957,1.936,1.744,1.936c0.467,0,0.871-0.182,1.137-0.532
		c0.097,1.18-0.071,2.582-0.987,2.582c-0.541,0-0.841-0.275-0.841-0.414c0-0.127,0.031-0.244,0.148-0.341
		c0.139-0.116,0.225-0.309,0.225-0.541c0-0.233-0.225-0.52-0.67-0.52c-0.436,0-0.627,0.477-0.627,0.977
		c0,0.937,0.912,1.509,1.808,1.509c1.444,0,2.454-1.095,2.454-3.382C76.357,224.461,75.432,223.143,73.955,223.143z M73.998,226.408
		c-0.479,0-0.766-0.406-0.766-1.234c0-0.83,0.266-1.35,0.766-1.35c0.467,0,0.754,0.52,0.754,1.35
		C74.752,226.002,74.465,226.408,73.998,226.408z M83.814,223.219h0.682v0.191c0,0.924-0.479,1.668-0.947,2.551
		c-0.455,0.893-0.936,1.934-0.936,3.477v0.478h-1.455v-0.275c0-1.987,1.115-4.02,1.775-5.049l-0.054-0.03
		c-0.192,0.02-0.5-0.099-0.725-0.181c-0.224-0.076-0.437-0.108-0.638-0.108c-0.436,0-0.817,0.521-0.817,1.639h-0.937v-2.711h0.64
		c0.02,0.213,0.104,0.33,0.18,0.33c0.106,0,0.353-0.107,0.512-0.183c0.267-0.127,0.615-0.202,1.031-0.202
		c0.338,0,0.594,0.118,0.785,0.215c0.19,0.104,0.35,0.211,0.512,0.211c0.125,0,0.211-0.031,0.285-0.094
		C83.773,223.42,83.814,223.336,83.814,223.219z M90.062,223.145c-1.328,0-2.265,1.316-2.265,3.39c0,2.084,0.701,3.444,2.265,3.444
		c1.553,0,2.264-1.36,2.264-3.444C92.326,224.441,91.391,223.145,90.062,223.145z M90.062,229.297c-0.64,0-0.767-0.861-0.767-2.764
		c0-2.115,0.127-2.709,0.767-2.709c0.639,0,0.768,0.594,0.768,2.709C90.83,228.436,90.701,229.297,90.062,229.297z M68.059,229.254
		l0.34,0.053v0.607h-2.571v-0.607l0.33-0.053c0.276-0.051,0.352-0.359,0.352-0.848v-3.732h-1v-0.711h0.234
		c0.541,0,0.914-0.182,1.17-0.744h0.785v5.188C67.697,228.895,67.783,229.203,68.059,229.254z M57.828,223.219h4.176v2.316h-0.67
		v-0.445c0-0.797-0.425-1.211-0.925-1.211c-0.541,0-0.7,0.252-0.7,0.742v1.381h1.051v0.756h-1.051v1.742
		c0,0.424,0.159,0.734,0.7,0.734c0.746,0,0.925-0.541,0.925-1.201v-0.521h0.67v2.402h-4.176v-0.607l0.338-0.053
		c0.256-0.041,0.34-0.361,0.34-0.848v-3.68c0-0.498-0.127-0.81-0.34-0.849l-0.338-0.055V223.219z M12.749,35.841l-2.529,3.78
		l-0.89-0.596l0.257-0.551c0.172-0.428-0.197-0.857-0.917-1.338l-5.402-3.618c-0.733-0.492-1.312-0.606-1.584-0.338l-0.412,0.447
		l-0.89-0.595l2.521-3.764l0.89,0.596l-0.257,0.553c-0.146,0.353,0.181,0.847,0.916,1.336l5.402,3.617
		c0.718,0.481,1.254,0.66,1.594,0.323l0.413-0.448L12.749,35.841z M90.033,20.486l0.594-0.893l0.553,0.256
		c0.443,0.183,0.871-0.188,1.353-0.905l3.34-5.004c0.396-0.593,0.949-1.558,0.354-1.954c-0.672-0.449-1.586,0.41-2.201,1.332
		l-0.584,0.877l-0.924-0.616l2.619-3.924l6.724,4.486l-2.617,3.925l-0.924-0.616l0.586-0.876c0.614-0.922,1.059-2.093,0.387-2.542
		c-0.594-0.398-1.272,0.483-1.67,1.078l-3.34,5.002c-0.479,0.72-0.656,1.257-0.304,1.604l0.435,0.402l-0.597,0.891L90.033,20.486z
		 M53.118,1.333l-0.027-1.07L57.62,0.15l0.027,1.073l-0.58,0.107c-0.394,0.086-0.605,0.636-0.584,1.52l0.057,2.273l3.083-0.075
		l-0.058-2.275c-0.021-0.883-0.261-1.422-0.675-1.486l-0.585-0.081l-0.025-1.071l4.529-0.112l0.026,1.071l-0.58,0.108
		c-0.393,0.086-0.604,0.637-0.582,1.52l0.16,6.503c0.021,0.865,0.185,1.407,0.656,1.489l0.586,0.078l0.026,1.072l-4.529,0.111
		l-0.027-1.07l0.58-0.108c0.488-0.106,0.625-0.654,0.604-1.52l-0.063-2.574l-3.084,0.074l0.064,2.576
		c0.022,0.864,0.185,1.407,0.657,1.488l0.604,0.078l0.026,1.072l-4.548,0.113l-0.027-1.072l0.599-0.108
		c0.449-0.104,0.586-0.652,0.565-1.52L54.36,2.902c-0.021-0.884-0.26-1.422-0.639-1.489L53.118,1.333z M69.861,11.763l-0.457-0.219
		c-0.381-0.224-0.508-1.071-0.027-2.109l0.252-0.527l2.236,0.418l0.024,0.578c0.033,1.462-0.276,1.898-0.784,1.958l-0.506,0.04
		l-0.195,1.054l4.545,0.848l0.199-1.053l-0.482-0.3c-0.293-0.169-0.506-0.765-0.596-2.121l-0.604-8.854l-1.721-0.321l-3.592,7.459
		c-0.875,1.808-1.293,2.304-1.783,2.365l-0.431,0.055l-0.196,1.051l3.918,0.732L69.861,11.763z M71.666,4.657l0.074,0.016
		l0.082,2.941l-1.461-0.272L71.666,4.657z M80.779,15.91l-3.18-1.313l0.405-0.991l0.592,0.144c0.455,0.085,0.804-0.361,1.134-1.162
		l2.481-6.013c0.338-0.816,0.338-1.408,0.019-1.619l-0.521-0.317l0.41-0.99l3.895,1.606l-0.283,7.188l0.019,0.006l1.557-3.771
		c0.339-0.815,0.339-1.407,0.021-1.621L86.803,6.74l0.408-0.989l3.338,1.377l-0.408,0.99l-0.576-0.136
		c-0.393-0.082-0.811,0.336-1.146,1.154l-3.502,8.481L82.9,16.786l0.459-9.738l-0.033-0.015l-2.484,6.014
		c-0.33,0.799-0.393,1.344,0,1.627l0.346,0.246L80.779,15.91z M104.711,20.054c0.615-0.632,0.836-1.18,0.619-1.495l-0.363-0.488
		l0.748-0.768l5.283,5.161l-2.865,2.931l-0.846-0.828l0.551-0.564c0.986-1.007,0.961-2.057,0.328-2.675
		c-0.686-0.669-1.203-0.545-1.807,0.073l-1.707,1.749l1.33,1.3l-0.933,0.954l-1.332-1.299l-2.149,2.203
		c-0.527,0.538-0.707,1.125-0.021,1.795c0.941,0.919,1.84,0.456,2.654-0.377l0.643-0.658l0.848,0.827l-2.967,3.038l-5.283-5.161
		l0.748-0.766l0.496,0.354c0.375,0.262,0.875-0.039,1.48-0.656L104.711,20.054z M44.061,2.943l-0.207-1.052L48.3,1.013l0.206,1.052
		l-0.571,0.209c-0.354,0.146-0.469,0.725-0.299,1.592l1.263,6.383c0.167,0.849,0.421,1.354,0.9,1.354l0.608-0.023l0.208,1.052
		l-4.464,0.882l-0.208-1.05l0.571-0.21c0.424-0.18,0.466-0.745,0.298-1.592l-1.261-6.383C45.38,3.412,45.054,2.92,44.67,2.917
		L44.061,2.943z M6.543,25.911l-0.76-0.754l3.042-3.073l0.762,0.754l-0.358,0.493c-0.236,0.32,0.003,0.531,0.71,0.968l4.069,2.546
		L9.75,21.147l1.138-1.149l6.07,3.919l-2.678-3.79c-0.497-0.728-0.791-0.992-1.227-0.658l-0.478,0.35l-0.761-0.754l2.54-2.567
		l0.762,0.755l-0.343,0.48c-0.318,0.428,0.043,1.077,0.793,2.138l5.049,7.14l-1.069,1.083l-6.098-3.918l4.284,5.749l-1.071,1.084
		l-8.205-5.132c-0.56-0.344-1.118-0.554-1.437-0.312L6.543,25.911z M23.517,22.907l-0.274,0.338l0.592,0.895l3.327-2.194
		L26.57,21.05l-0.479,0.159c-0.429,0.104-1.11-0.419-1.485-1.499l-0.185-0.554l1.898-1.254l0.421,0.396
		c1.039,1.03,1.119,1.562,0.794,1.957l-0.336,0.378l0.593,0.896l3.859-2.549l-0.591-0.895l-0.553,0.118
		c-0.329,0.081-0.896-0.196-1.904-1.109l-6.586-5.948l-1.458,0.962l2.596,7.862C23.782,21.876,23.826,22.523,23.517,22.907z
		 M22.996,14.645l2.104,2.06l-1.24,0.817l-0.927-2.836L22.996,14.645z M30.171,7.645L29.78,6.647l4.223-1.643l0.387,1L33.864,6.31
		c-0.322,0.206-0.335,0.797-0.015,1.618l0.824,2.12c0.088-0.033,0.159-0.162,0.177-0.271l1.097-3.713
		c0.043-0.098,0.065-0.247,0.031-0.335c-0.04-0.105-0.309-0.121-0.55-0.068l-0.424,0.104l-0.387-0.999l4.221-1.641l0.389,0.998
		L38.68,4.438c-0.23,0.131-0.41,0.703-0.655,1.525l-1.102,3.653l3.521,2.725c0.725,0.566,1.41,0.984,1.894,0.877l0.665-0.156
		l0.388,0.996l-4.482,1.744l-0.389-0.998l0.366-0.202c0.126-0.09,0.176-0.271,0.103-0.462c-0.069-0.177-0.276-0.397-0.536-0.601
		l-2.213-1.699l-0.372,1.272l0.341,0.876c0.313,0.807,0.65,1.261,1.122,1.178l0.596-0.13l0.387,0.997l-4.237,1.648l-0.39-1
		l0.527-0.305c0.387-0.253,0.329-0.813,0.016-1.619l-2.357-6.06c-0.321-0.824-0.727-1.249-1.105-1.185L30.171,7.645z
		 M119.619,33.812l-0.881,0.613L118.33,34c-0.287-0.28-0.865-0.153-1.59,0.351l-7.525,5.243l-1.244-1.787l5.644-7.941l-0.021-0.031
		l-5.336,3.717c-0.707,0.496-1.055,0.92-0.879,1.369l0.16,0.394l-0.881,0.612l-1.966-2.822l0.88-0.612l0.42,0.439
		c0.338,0.314,0.869,0.128,1.578-0.367l5.336-3.718c0.725-0.505,1.043-1.002,0.891-1.354l-0.268-0.546l0.879-0.613l2.405,3.454
		l-4.116,5.894l0.012,0.016l3.346-2.33c0.726-0.506,1.043-1.003,0.89-1.354l-0.267-0.547l0.882-0.612L119.619,33.812z M76.59,96.963
		c-6.344-1.951-4.492-3.936-4.492-3.936s2.104-2.709-1.178-2.631c-0.062,0-0.123-0.006-0.186-0.004
		c0.985-0.652,2.729-1.404,4.235-2.379c1.755-1.133,3.388-2.303,3.998-2.77c0.25,0.523,0.496,0.939,0.729,1.207
		c2.078,2.396,5.902,8.482,3.44,10.041C81.371,97.613,80.383,98.131,76.59,96.963z M55.001,83.062
		c-0.869-1.078-1.49-2.248-1.815-2.928c-0.039-0.084-0.082-0.168-0.121-0.25c0.412-0.283,0.92-0.658,1.23-0.967
		c0.051,0.07,0.102,0.146,0.152,0.213c0.509,0.676,1.033,1.703,1.982,2.52C55.908,82.154,55.372,82.682,55.001,83.062z
		 M65.723,91.77c0.99-0.416,2.123-0.924,3.326-1.504c0.979-0.465,2.9-1.611,4.803-2.682c2.584-1.455,4.779-3.166,4.957-3.27
		c2.111-1.676,3.953-3.537,5.185-5.547l0.022-0.002c1.306-1.789,2.125-3.998,2.574-6.401c0.012,0.021,0.021,0.026,0.027-0.008
		c0.186-1.182,1.174-2.143,2.772-2.348c2.732-0.35,4.304-5.77,1.859-7.234c-1.717-1.029-3.021-0.801-3.873-0.418
		c-0.664,0.301-1.031-0.729-1.031-0.729l-0.016,0.008c-1.084-5.279-3.459-10.406-6.908-13.043c-0.055-0.043-0.115-0.082-0.172-0.123
		c-1.213-1.203-3.935-3.104-5.615-3.908c-6.727-3.221-13.478-5.176-15.409-5.705c-0.777-0.652-1.769-1.193-2.944-1.582
		c-0.484-0.162-0.987-0.289-1.499-0.393c-0.057-0.279-0.173-0.564-0.368-0.857c-1.774-2.668-4.621-1.213-5.379,0.59
		c-0.041,0.096-0.049,0.182-0.08,0.272c-0.306,0.058-0.607,0.131-0.91,0.205c-0.067-0.199-0.086-0.275-0.193-0.582
		c-0.137-0.396-0.375-0.397-0.249-0.801c0.17-0.534,0.536,0.004,0.988-0.479c0.204-0.218,0.383-0.543,0.502-0.999
		c0.084-0.326,0.176-0.69,0.164-1.055c-0.011-0.344-0.122-0.687-0.328-1.007c-0.168-0.262-0.404-0.527-0.765-0.738
		c-0.361-0.213-0.699-0.269-0.999-0.293c-0.372-0.031-0.701,0.045-1.027,0.122c-0.343,0.081-0.682,0.171-1.036,0.146
		c-0.455-0.033-0.827-0.235-1.213-0.349c-0.38-0.108-0.776-0.161-1.246-0.058c-0.329,0.073-0.712,0.215-1.148,0.515
		c-0.308,0.211-0.527,0.478-0.687,0.759c-0.161,0.287-0.265,0.615-0.334,0.967c-0.062,0.312-0.097,0.655-0.129,1.014
		c-0.043,0.465-0.396,0.732-0.773,1.084c-0.295,0.276-0.627,0.589-0.746,1.138c-0.109,0.504-0.027,0.922,0.133,1.24
		c0.205,0.406,0.573,0.68,0.928,0.814c0.706,0.268,0.832-0.275,1.587-0.017c0.492,0.17,0.337,0.412,0.684,0.803
		c0.242,0.271,0.315,0.359,0.455,0.518c-0.561,0.531-1.112,1.184-1.635,1.941c-1.929-1.199-4.115,0.242-4.538,1.875
		c-0.538,2.067,0.978,2.717,2.388,2.928c-1.067,4.184-0.472,7.812,1.88,11.41c0.984,1.504,2.107,2.582,3.398,3.271
		c0.299,0.123,1.505,0.613,2.16,0.773c0.757,0.188,1.536,0.283,2.317,0.297c0.39,0.021,0.78-0.021,1.169-0.041
		c0.386-0.059,0.778-0.092,1.157-0.197c0.77-0.154,1.497-0.461,2.211-0.791l0.011-0.006c0.073-0.031,0.16,0,0.194,0.072
		c0.033,0.072-0.009,0.143-0.066,0.193c-0.444,0.381-1.261,1.043-3.798,1.482c-1.064,0.188-3.419-0.221-3.747-0.35
		c-0.806-0.164-1.154-0.496-1.927-0.854l-0.037,0.002c-1.221,0.062-4.173-0.023-5.667-0.324l-0.465-3.797
		c-0.037-0.312-0.151-0.533-0.336-0.66c-0.18-0.125-0.418-0.152-0.703-0.08c-0.703,0.174-0.874,0.688-0.815,0.988l0.579,3.111
		c-0.585-0.133-1.17-0.25-1.312-0.256c-0.061-0.002-0.11,0.006-0.168,0.006l-0.612-2.389c-0.07-0.273-0.268-0.455-0.542-0.496
		c-0.178-0.029-0.376,0.014-0.62,0.133c-0.526,0.26-0.729,0.713-0.555,1.25l0.675,2.082c-0.684,0.676-0.99,1.984-0.806,4.25
		c0.059,0.746,1.375,1.549,2.879,2.158l2.131,6.584c0.092,0.281,0.245,0.627,0.463,0.686c0.007,0.002,0.044,0.01,0.097,0.008
		c0.043-0.002,0.101-0.012,0.157-0.039c0.226-0.104,0.269-0.416,0.134-0.947l-1.476-5.762c0.33,0.099,0.653,0.185,0.958,0.254
		l1.013,5.432c0.123,0.658,0.303,0.723,0.354,0.736c0.011,0.006,0.059,0.027,0.13,0.025c0.041-0.004,0.088-0.012,0.141-0.033
		c0.215-0.088,0.28-0.375,0.214-0.928l-0.62-5.051c1.499,0.08,2.277-0.484,4.26-0.359c1.167,0.072,4.145,0.391,5.631,0.227
		c1.1-0.121,2.218-0.283,3.313-0.521h0.001c-0.12,0.682-0.208,1.346-0.267,1.996c0.779-0.895,1.442-1.912,1.508-2.385l0.006-0.004
		c0.215-1.281,0.51-2.582,0.872-3.885c0.271-0.697,0.745-0.455,1.095-0.127c0.078,0.277,0.147,0.556,0.186,0.836
		c0.151,1.059-0.995,2.717-1.75,3.848c-0.237,0.414-1.652,2.764-2.554,3.926c-0.187,0.266-0.369,0.521-0.55,0.764
		c-0.792,1.062-1.042,1.551-1.923,1.949c-0.259-0.16-0.535-0.287-0.826-0.371c-0.249-0.068-0.504-0.08-0.748-0.092l-0.249-0.014
		c-0.095-0.008-0.194-0.023-0.292-0.041c-0.205-0.035-0.434-0.072-0.689-0.062c-0.201,0.021-0.405,0.055-0.614,0.1
		c-0.113,0.023-0.225,0.045-0.34,0.062l-0.29,0.039c-0.217,0.025-0.437,0.053-0.654,0.104c-0.229,0.053-0.457,0.127-0.69,0.201
		l-0.22,0.07c-0.296,0.092-0.599,0.189-0.899,0.303c-0.182,0.068-0.358,0.154-0.536,0.242c-0.105,0.051-0.213,0.105-0.324,0.156
		c-0.284,0.123-0.563,0.264-0.847,0.41c-0.112,0.055-0.231,0.1-0.346,0.145c-0.182,0.07-0.36,0.143-0.524,0.236
		c-0.278,0.162-0.551,0.328-0.809,0.498c-0.183,0.119-0.354,0.254-0.521,0.387l-0.238,0.186c-0.172,0.127-0.33,0.273-0.483,0.416
		c-0.077,0.07-0.154,0.141-0.232,0.209c-0.092,0.078-0.194,0.146-0.294,0.215c-0.168,0.115-0.332,0.229-0.469,0.369
		c-0.156,0.156-0.286,0.334-0.409,0.508c-0.061,0.086-0.123,0.172-0.187,0.252c-0.217,0.262-0.411,0.522-0.572,0.783l-0.078,0.127
		c-0.149,0.238-0.306,0.488-0.407,0.756c-0.141,0.377-0.219,0.729-0.231,1.047c-0.015,0.391,0.071,0.779,0.248,1.125
		c0.189,0.373,0.518,0.596,0.808,0.793c0.251,0.168,0.546,0.295,0.956,0.408c0.328,0.094,0.647,0.149,0.98,0.178
		c0.308,0.021,0.627,0.014,0.969-0.006l0.272-0.008c0.149-0.004,0.302-0.008,0.457-0.019c0.078-0.008,0.157-0.02,0.235-0.029
		c0.306-0.047,0.617-0.109,0.934-0.186c0.2-0.047,0.397-0.113,0.601-0.18l0.307-0.103c0.105-0.031,0.211-0.061,0.319-0.092
		c0.195-0.051,0.392-0.105,0.586-0.18c0.106-0.041,0.216-0.072,0.329-0.109c0.19-0.059,0.383-0.119,0.567-0.201
		c0.187-0.082,0.366-0.18,0.548-0.276l0.294-0.156c0.103-0.051,0.205-0.1,0.31-0.146c0.184-0.088,0.368-0.174,0.539-0.273
		c0.088-0.051,0.168-0.113,0.25-0.172c0.626,0.311,1.34,0.531,2.085,0.572c1.883,0.109,3.917-1.303,4.992-2.631
		c0.385-0.471,0.692-1.037,1.243-1.639c0.534-0.48,0.633-0.527,1.076-0.945c0.002,0,0.004-0.002,0.005-0.002
		c-0.001,0-0.003,0.002-0.005,0.002c0.281-0.264,0.887-0.619,0.887-0.619l0.002-0.002c-0.001,0.002-0.002,0.002-0.003,0.002h0.001
		h0.002c4.2-2.918,10.408-6.98,12.396-11.496c2.55-5.785,3.541-12.82,5.226-14.816c0.672-0.801,2.903-2.654,4.791-1.814
		c0.112,0.051,0.215,0.074,0.319,0.111c0.355,0.246,0.709,0.502,1.062,0.771c1.297,0.992,2.467,2.297,3.471,3.82
		c2.98,4.521,4.017,11.178,3.111,16.826c-0.193,0.404-0.979,1.834-2.131,1.303c-0.765-0.348-2.033-0.67-4.229-1.01
		c-1.074-0.166-2.385,0.002-3.727,0.338c-2.689,0.67-5.504,2.029-6.775,2.826c-1.385,0.871-4.131,2.756-6.998,5.117
		c-1.005,0.828-2.018,1.713-2.998,2.635c-0.658,0.646-1.73,1.775-2.099,2.121c-4.073,4.518-4.475,7.844-4.156,12.271
		c0.24,3.346-2.842,3.025-3.436,6.539c-0.425,2.516,2.902,2.891,6.021,2.443c3.12-0.445,5.345-0.289,6.371-1.863
		c1.691-2.592,1.4-4.498,1.589-7.377C62.637,92.385,65.139,92.014,65.723,91.77z M47.837,77.779l-0.061,0.162
		c-0.007,0.023-0.018,0.047-0.029,0.07c-0.124-0.205-0.441-0.418-0.948-0.52c-0.458-0.062-0.424,0.022-0.935,0.066
		c-0.292,0.023-0.617,0.094-0.917,0.172c-0.027,0.004-0.05,0.016-0.077,0.021c-0.259-0.346-0.737-0.43-0.908-0.453
		c-0.281-0.041-0.608-0.033-0.967,0.014l-0.182,0.023c-0.224,0.023-0.477,0.055-0.736,0.129c-0.282,0.08-0.579,0.184-0.878,0.305
		c-0.276,0.111-0.555,0.248-0.836,0.391c-0.232,0.119-0.449,0.256-0.658,0.389l-0.132,0.084c-0.273,0.17-0.527,0.346-0.756,0.525
		l-0.074,0.057c-0.233,0.182-0.456,0.354-0.642,0.549c-0.242,0.256-0.443,0.523-0.581,0.779c-0.221,0.412-0.253,0.818-0.089,1.139
		c0.164,0.324,0.508,0.541,0.968,0.605c0.144,0.021,0.295,0.018,0.463,0.006c0.154-0.014,0.319-0.037,0.508-0.061
		c0.256-0.037,0.545-0.1,0.905-0.203l0.209-0.06c0.222-0.057,0.45-0.121,0.676-0.211c0.274-0.109,0.558-0.234,0.841-0.379
		c0.211-0.109,0.409-0.234,0.6-0.359l0.426-0.264c0.164-0.096,0.315-0.197,0.462-0.301c0.167,0.332,0.57,0.615,1.353,0.766
		c-0.047,0.025-0.091,0.06-0.14,0.086c-0.127,0.068-0.254,0.143-0.375,0.223c-0.11,0.07-0.218,0.147-0.327,0.231
		c-0.131,0.096-0.266,0.197-0.412,0.281c-0.148,0.088-0.31,0.162-0.47,0.234c-0.112,0.055-0.226,0.106-0.336,0.166l-0.312,0.164
		c-0.161,0.086-0.321,0.172-0.483,0.246c-0.154,0.066-0.313,0.115-0.472,0.166c-0.128,0.039-0.254,0.08-0.377,0.123
		c-0.167,0.064-0.337,0.109-0.506,0.156c-0.118,0.033-0.235,0.064-0.348,0.1l-0.329,0.107c-0.174,0.059-0.344,0.117-0.519,0.156
		c-0.295,0.072-0.582,0.131-0.864,0.174c-0.195,0.031-0.385,0.031-0.569,0.037L37.7,83.883c-0.303,0.016-0.584,0.023-0.853,0.006
		c-0.271-0.021-0.535-0.067-0.805-0.145c-0.312-0.088-0.526-0.176-0.69-0.289c-0.22-0.146-0.427-0.287-0.509-0.451
		c-0.105-0.209-0.158-0.443-0.147-0.682c0.006-0.215,0.067-0.479,0.172-0.758c0.076-0.197,0.2-0.393,0.327-0.596l0.082-0.131
		c0.141-0.229,0.313-0.455,0.503-0.688c0.076-0.094,0.147-0.193,0.221-0.297c0.096-0.135,0.195-0.273,0.316-0.396
		c0.097-0.096,0.216-0.178,0.335-0.258c0.127-0.086,0.255-0.174,0.374-0.275c0.087-0.074,0.173-0.154,0.257-0.232
		c0.131-0.121,0.264-0.244,0.413-0.355l0.257-0.201c0.146-0.115,0.293-0.231,0.453-0.338c0.246-0.16,0.504-0.318,0.767-0.471
		c0.123-0.074,0.26-0.123,0.396-0.176c0.145-0.055,0.291-0.113,0.432-0.186c0.268-0.137,0.534-0.27,0.802-0.387
		c0.122-0.055,0.24-0.113,0.357-0.172c0.151-0.074,0.3-0.148,0.455-0.207c0.284-0.109,0.568-0.199,0.846-0.287l0.227-0.07
		c0.211-0.066,0.417-0.133,0.625-0.182c0.185-0.045,0.371-0.064,0.552-0.088l0.32-0.041c0.132-0.021,0.26-0.047,0.387-0.072
		c0.15-0.033,0.297-0.064,0.44-0.076c0.012-0.002,0.025-0.004,0.038-0.004c0.154-0.008,0.316,0.02,0.49,0.049
		c0.126,0.021,0.249,0.039,0.37,0.049l0.275,0.016c0.204,0.012,0.396,0.02,0.549,0.062c0.246,0.068,0.48,0.176,0.692,0.32
		c0.16,0.107,0.278,0.258,0.412,0.521c0.114,0.223,0.161,0.422,0.153,0.641C47.986,77.279,47.934,77.521,47.837,77.779z
		 M43.216,79.895c-0.01,0.01-0.018,0.02-0.028,0.027c-0.142,0.111-0.306,0.207-0.473,0.305l-0.448,0.279
		c-0.174,0.113-0.351,0.229-0.544,0.326c-0.265,0.135-0.532,0.25-0.791,0.355c-0.203,0.082-0.41,0.137-0.605,0.189l-0.219,0.061
		c-0.33,0.094-0.59,0.152-0.889,0.193c-0.29,0.039-0.539,0.072-0.729,0.047c-0.256-0.037-0.437-0.133-0.507-0.274
		c-0.069-0.135-0.041-0.338,0.085-0.568c0.109-0.209,0.276-0.43,0.481-0.645c0.156-0.162,0.359-0.32,0.575-0.488l0.075-0.059
		c0.214-0.166,0.45-0.328,0.706-0.49l0.134-0.082c0.194-0.123,0.393-0.252,0.609-0.361c0.264-0.135,0.525-0.264,0.784-0.365
		c0.28-0.115,0.553-0.213,0.817-0.285c0.214-0.062,0.432-0.088,0.641-0.113l0.192-0.023c0.073-0.01,0.144-0.018,0.215-0.023
		c0.215-0.018,0.409-0.014,0.581,0.01c0.157,0.021,0.275,0.057,0.367,0.096c-0.053,0.033-0.117,0.055-0.157,0.09
		c-0.197,0.18-0.379,0.521-0.571,0.846c-0.182,0.303-0.336,0.617-0.307,0.938C43.208,79.883,43.215,79.889,43.216,79.895z
		 M57.209,55.014c-1.317,2.099-3.007,4.174-6.396,5.156c-3.808,1.104-6.409,0.762-8.468-1.215l-0.001-0.002
		c0.518,0.115,1.132-0.066,1.617-0.686c0.731-0.936,0.386-2.984,0.18-3.689c-0.135-0.465-0.458-0.846-1.018-0.77
		c-1.518,0.205-1.915,2.725-1.814,3.943l0.003,0.018v0.002c0,0,0,0,0-0.002c-0.141-0.188-0.278-0.383-0.414-0.59
		c-2.143-3.276-2.677-6.584-1.681-10.406c0.043-0.164,0.104-0.309,0.151-0.469c1.27-0.74,2.198-2.559,1.619-3.567
		c0.295-0.453,0.599-0.875,0.914-1.238c0.018-0.002,0.038-0.004,0.048-0.014c0.211-0.244,0.413-0.482,0.626-0.688
		c0.172-0.166,0.337-0.312,0.503-0.459c0.136-0.109,0.271-0.219,0.405-0.312c0.08-0.057,0.157-0.107,0.236-0.156
		c0.106-0.07,0.215-0.143,0.32-0.203c0.391-0.221,0.817-0.391,1.237-0.57c0.2-0.086,0.399-0.174,0.605-0.25
		c0.152-0.055,0.308-0.104,0.461-0.16c0.483-0.16,0.969-0.318,1.469-0.428c0.025-0.008,0.051-0.008,0.076-0.012
		c0.298,1.066,1.417,1.686,2.442,1.807c1.039,0.121,2.665-0.678,3.259-1.865c0.443,0.09,0.884,0.186,1.304,0.324
		c1.819,0.604,3.106,1.58,3.626,2.754C59.947,44.484,58.72,52.613,57.209,55.014z M51.861,57.713c0.205,0.127,0,1.154-0.783,1.41
		c-0.215,0.07-0.44,0.084-0.656,0.076c-0.168-0.01-0.329-0.035-0.483-0.068l0.009,0.004c-0.51-0.037-0.734,0.299-0.734,0.299
		l-0.001-0.014c-0.024,0.053-0.043,0.109-0.075,0.16c-0.21,0.357-0.579,0.498-0.958,0.57c-0.204,0.041-1.012,0.08-1-0.193
		c0.016-0.318,0.602-0.322,0.836-0.383c0.539-0.144,0.509-0.859,0.45-1.217c-1.412,0.123-1.973-1.146-1.357-1.57
		c0.579-0.398,1.172-0.709,2.389-0.449c0.732,0.158,0.391,1.15-0.136,1.662c0.259,0.143,1.365,0.691,2.077,0.031
		C51.638,57.844,51.732,57.631,51.861,57.713z M53.651,51.812c1.669,1.547,0.149,3.285-1.563,3.074
		c-1.711-0.211-5.654-2.521-3.203-4.301C48.884,50.586,50.959,49.314,53.651,51.812z M53.697,78.016
		c0.282-0.262,0.877-0.615,0.88-0.617C54.272,77.611,53.978,77.814,53.697,78.016z M54.581,77.396
		c-0.001,0.002-0.002,0.002-0.003,0.002c-0.003,0.002-0.599,0.355-0.88,0.617c-0.001,0-0.003,0.002-0.005,0.002
		c0.281-0.264,0.887-0.619,0.887-0.619L54.581,77.396z"/>
</g>
</svg>
