<?xml version="1.0" encoding="utf-8"?>
<!-- Generator: Adobe Illustrator 16.0.0, SVG Export Plug-In . SVG Version: 6.00 Build 0)  -->
<!DOCTYPE svg PUBLIC "-//W3C//DTD SVG 1.1//EN" "http://www.w3.org/Graphics/SVG/1.1/DTD/svg11.dtd">
<svg version="1.1" id="レイヤー_1" xmlns="http://www.w3.org/2000/svg" xmlns:xlink="http://www.w3.org/1999/xlink" x="0px"
	 y="0px" width="150px" height="16px" viewBox="0 0 150 16" enable-background="new 0 0 150 16" xml:space="preserve">
<path fill="#A72126" d="M1.818,12.085c0,1.086-0.188,1.771-0.757,1.89l-0.754,0.119v1.344h5.713v-1.344l-0.756-0.119
	c-0.591-0.119-0.778-0.804-0.778-1.89V3.916c0-1.111,0.283-1.794,0.756-1.889l0.755-0.118V0.562h-5.69v1.346l0.754,0.118
	c0.472,0.096,0.757,0.779,0.757,1.889V12.085L1.818,12.085z M20.376,0.562v1.346l0.731,0.118c0.684,0.096,0.708,0.59,0.497,1.677
	l-1.017,5.739l-1.864-8.878h-2.029l-1.324,8.833l-1.322-5.881C13.813,2.5,13.79,2.1,14.286,2.028l0.756-0.118V0.563H9.61v1.346
	l0.731,0.118c0.497,0.072,0.804,0.756,0.99,1.56L14,15.439h1.913l1.347-8.902l1.889,8.902h1.912l1.913-10.814
	c0.283-1.605,0.545-2.502,1.205-2.598l0.732-0.118V0.562H20.376z M30.328,8.521l0.993-3.614h0.093l0.778,3.614H30.328z
	 M32.643,10.623l0.165,0.706c0.378,1.796,0.094,2.408-0.52,2.599l-0.614,0.166v1.344h5.809v-1.344l-0.662-0.262
	c-0.4-0.141-0.802-0.826-1.229-2.48l-2.786-10.79h-2.196l-2.716,10.036c-0.661,2.432-1.063,3.14-1.654,3.33l-0.518,0.166v1.344
	h5.005v-1.344l-0.613-0.166c-0.519-0.188-0.874-1.205-0.519-2.599l0.188-0.706H32.643z M42.137,12.085
	c0,1.086-0.19,1.771-0.755,1.89l-0.754,0.119v1.344h5.713v-1.344l-0.755-0.119c-0.591-0.119-0.779-0.804-0.779-1.89v-1.181
	l1.015-1.322l1.817,2.999c0.213,0.354,0.355,0.708,0.355,0.946c0,0.262-0.143,0.449-0.333,0.495l-0.517,0.071v1.346h6.043v-1.346
	l-0.848-0.119c-0.613-0.096-1.229-0.896-1.817-1.89l-2.88-4.792l2.952-3.779c0.663-0.85,1.133-1.438,1.464-1.487l0.777-0.118V0.562
	h-5.688v1.346l0.542,0.071c0.309,0.046,0.615,0.187,0.615,0.331c0,0.118-0.096,0.282-0.188,0.378l-2.975,3.848
	c-0.07,0.118-0.212,0.237-0.331,0.237V3.917c0-1.111,0.284-1.794,0.756-1.889l0.756-0.118V0.562H40.63v1.346l0.755,0.118
	c0.472,0.096,0.755,0.779,0.755,1.889L42.137,12.085L42.137,12.085z M58.083,12.085c0,1.086-0.188,1.771-0.756,1.89l-0.754,0.119
	v1.344h5.713v-1.344l-0.752-0.119c-0.589-0.119-0.78-0.804-0.78-1.89V3.916c0-1.111,0.284-1.794,0.754-1.889l0.757-0.118V0.562
	h-5.691v1.346l0.754,0.118c0.474,0.096,0.756,0.779,0.756,1.889V12.085z M70.303,3.916c0-1.111,0.282-1.794,0.779-1.889l0.729-0.118
	V0.562h-5.69v1.346l0.757,0.118c0.472,0.096,0.756,0.779,0.756,1.889v8.169c0,1.086-0.189,1.771-0.756,1.891l-0.757,0.117v1.346
	h5.719v-1.346l-0.756-0.117c-0.589-0.119-0.779-0.805-0.779-1.891V8.848h3.869v3.236c0,1.086-0.187,1.771-0.801,1.891l-0.733,0.117
	v1.346h5.689v-1.346l-0.732-0.117c-0.588-0.119-0.779-0.805-0.779-1.891V3.915c0-1.111,0.283-1.794,0.779-1.889l0.732-0.118V0.562
	h-5.689v1.346l0.733,0.118c0.518,0.096,0.801,0.779,0.801,1.889v2.858h-3.869L70.303,3.916L70.303,3.916z M86.021,8.521l0.99-3.614
	h0.095l0.783,3.614H86.021z M88.334,10.623l0.164,0.706c0.379,1.796,0.096,2.408-0.518,2.599l-0.613,0.166v1.344h5.807v-1.344
	l-0.665-0.262c-0.401-0.141-0.802-0.826-1.226-2.48l-2.787-10.79h-2.197l-2.715,10.036c-0.662,2.432-1.064,3.14-1.654,3.33
	l-0.518,0.166v1.344h5.004v-1.344l-0.615-0.166c-0.518-0.188-0.871-1.205-0.518-2.599l0.189-0.706H88.334z M99.582,3.916h0.049
	l4.131,11.522h2.738V3.916c0-1.111,0.285-1.794,0.779-1.889l0.731-0.118V0.562h-4.532v1.346l0.756,0.118
	c0.474,0.096,0.756,0.779,0.756,1.889v5.123h-0.023l-3.117-8.476h-5.288v1.345l0.757,0.118c0.471,0.096,0.756,0.779,0.756,1.889
	v8.169c0,1.086-0.188,1.771-0.756,1.89l-0.757,0.119v1.344h4.321v-1.344l-0.52-0.119c-0.588-0.142-0.779-0.804-0.779-1.89V3.916
	H99.582z M111.584,6.489h1.393V5.168c0-1.395,0.355-2.928,1.369-2.928c0.898,0,0.993,1.393,0.993,2.29v7.555
	c0,1.086-0.189,1.771-0.779,1.89l-0.756,0.119v1.344h5.714v-1.344l-0.732-0.119c-0.613-0.119-0.803-0.804-0.803-1.89V4.53
	c0-0.899,0.094-2.29,0.992-2.29c1.015,0,1.368,1.533,1.368,2.928v1.321h1.395V0.562h-10.153V6.489L111.584,6.489z M131.906,8.426
	V6.748h-2.336v-3.07c0-1.085,0.354-1.651,1.555-1.651c1.111,0,2.053,0.919,2.053,2.689v0.993h1.489V0.562h-9.279v1.346l0.756,0.118
	c0.474,0.096,0.757,0.779,0.757,1.889v8.169c0,1.086-0.189,1.793-0.757,1.891l-0.756,0.117v1.346h9.281v-5.336h-1.489v1.156
	c0,1.465-0.4,2.668-2.053,2.668c-1.203,0-1.555-0.685-1.555-1.63V8.424L131.906,8.426L131.906,8.426z M141.265,3.916h0.046
	l4.135,11.522h2.738V3.916c0-1.111,0.281-1.794,0.778-1.889l0.731-0.118V0.562h-4.533v1.346l0.754,0.118
	c0.475,0.096,0.757,0.779,0.757,1.889v5.123h-0.021l-3.116-8.476h-5.291v1.345l0.756,0.118c0.475,0.096,0.758,0.779,0.758,1.889
	v8.169c0,1.086-0.189,1.771-0.758,1.89l-0.756,0.119v1.344h4.322v-1.344l-0.521-0.119c-0.586-0.142-0.777-0.804-0.777-1.89V3.916
	H141.265z"/>
</svg>
