<?xml version="1.0" encoding="utf-8"?>
<!-- Generator: Adobe Illustrator 16.0.0, SVG Export Plug-In . SVG Version: 6.00 Build 0)  -->
<!DOCTYPE svg PUBLIC "-//W3C//DTD SVG 1.1//EN" "http://www.w3.org/Graphics/SVG/1.1/DTD/svg11.dtd">
<svg version="1.1" id="レイヤー_1" xmlns="http://www.w3.org/2000/svg" xmlns:xlink="http://www.w3.org/1999/xlink" x="0px"
	 y="0px" width="285px" height="26px" viewBox="0 0 285 26" enable-background="new 0 0 285 26" xml:space="preserve">
<path fill="#A72126" d="M16.238,19.302c0-1.162,0.24-2.082,1.203-2.082h1.363V14.19h-8.22v3.029h0.643
	c0.802,0,1.443,0.6,1.443,2.119c0,3.32-1.884,3.961-3.609,3.961c-2.565,0-3.648-3.238-3.648-5.48V7.179
	c0-2.238,0.481-4.443,2.888-4.443c3.126,0,4.369,5.482,4.411,9.445h4.13V0.294h-2.728c0,0.521-0.16,1.281-0.642,1.281
	c-0.601,0-1.282-0.4-1.924-0.682C10.545,0.413,9.462,0.136,8.3,0.136C3.046,0.136,0,4.657,0,9.179v6.682
	c0,4.881,2.406,10.002,8.42,10.002c1.283,0,2.526-0.119,3.167-0.404c0.643-0.279,1.204-0.551,1.645-0.551
	c0.441,0,0.722,0.355,0.882,0.721h2.125v-6.316h-0.002V19.302z M21.129,2.696l1.042,0.162c0.842,0.119,1.323,1.162,2.085,2.682
	l4.531,8.604v5.801c0,1.838-0.32,3.002-1.323,3.203l-1.283,0.201v2.279h9.705v-2.279l-1.282-0.201
	c-1.002-0.201-1.324-1.361-1.324-3.203v-7.523l4.451-8.041c0.443-0.76,0.763-1.402,1.285-1.482l1.361-0.201V0.419h-7.979v2.277
	l1.241,0.203c0.763,0.162,0.925,0.922,0.362,1.883l-2.487,4.521l-2.566-4.643c-0.521-0.924-0.281-1.6,0.601-1.762l1.243-0.203V0.419
	h-9.664L21.129,2.696L21.129,2.696z M49.476,17.821c0,2.92,0.443,5.482,2.847,5.482c2.364,0,2.846-2.76,2.846-5.482V7.179
	c0-2.238-0.482-4.443-2.846-4.443c-2.405,0-2.847,2.205-2.847,4.443V17.821z M60.623,16.542c0.041,5.041-3.246,9.322-8.298,9.322
	c-5.012,0-8.379-3.602-8.339-9.043l0.041-7.641c0-4.723,3.287-9.043,8.299-9.043c5.012,0,8.259,4.041,8.298,9.043V16.542z
	 M66.517,8.579h2.526v-2.16c0-1.961,1.002-2.883,3.81-2.883h1.885c0.683,0,1.204,0.318,1.204,0.838c0,0.48-0.119,1.041-0.481,1.682
	l-9.664,17.287v2.279h16.921v-8.203h-2.525v2.201c0,1.924-0.962,2.84-3.77,2.84h-2.647c-0.642,0-1.244-0.318-1.244-0.838
	c0-0.6,0.164-1.279,0.443-1.723l9.744-17.205V0.417H66.517V8.579z M98.354,13.901L97.031,7.78h-0.16l-1.686,6.121H98.354z
	 M94.264,17.462l-0.318,1.201c-0.602,2.359,0,4.08,0.883,4.4l1.043,0.281v2.281H87.37v-2.281l0.883-0.281
	c1.003-0.318,1.685-1.518,2.805-5.643l4.611-17.004h3.729l4.73,18.283c0.723,2.803,1.406,3.965,2.086,4.205l1.121,0.441v2.279
	h-9.862v-2.279l1.042-0.281c1.043-0.318,1.524-1.357,0.883-4.4l-0.279-1.203H94.264L94.264,17.462z M127.584,21.903
	c1.283,0,2.045-0.4,2.605-0.881c-1.361-1.6-2.928-4.168-3.768-5.973c-1.244,0.801-1.766,2.166-1.766,3.521
	C124.656,20.343,126.021,21.903,127.584,21.903z M128.867,8.618c1.043-0.76,1.844-2.119,1.844-3.361
	c0-1.119-0.643-1.881-1.604-1.881c-1.162,0-1.562,0.961-1.562,2.002C127.545,6.38,128.225,7.78,128.867,8.618z M138.854,19.181
	h2.646v1.561c0,3.203-1.324,5.121-4.01,5.121c-1.766,0-3.488-0.684-5.012-2.002c-1.766,1.52-4.051,2.002-5.654,2.002
	c-5.415,0-7.377-3.803-7.377-7.359c0-4.043,2.486-6.289,4.893-7.646c-0.602-1.441-1.003-3.121-1.003-4.723
	c0-3.441,2.206-5.723,5.331-5.723c3.127,0,5.455,1.881,5.455,5.281c0,2.643-1.205,4.842-3.41,7.002
	c0.883,1.402,2.166,3.322,3.127,4.645l0.721-0.838c0.562-0.684,0.684-1.52,0.684-2.041c0-0.795-0.441-1.236-1.084-1.236h-0.721
	v-2.361h8.061v2.359c-1.164,0-1.846,0.078-2.125,0.838c-0.842,2.24-1.803,4.645-3.488,6.207c0.441,0.795,1.244,1.762,1.803,1.762
	c0.842,0,1.164-0.596,1.164-1.48V19.181L138.854,19.181z M170.285,7.94V0.419h-1.965c-0.279,0.275-0.602,0.598-1.082,0.598
	c-0.6,0-1.201-0.201-1.84-0.4c-0.764-0.24-2.086-0.48-3.328-0.48c-3.971,0-7.217,2.641-7.217,6.883c0,4.002,1.443,6.24,5.051,7.76
	l3.127,1.281c1.32,0.561,3.451,1.521,3.451,3.801c0,1.598-1.246,3.041-2.93,3.041c-2.729,0-4.732-1.32-5.736-2.924
	c-0.643-1-1.041-1.881-1.242-2.961h-2.004v8.598h2.004c0.357-0.727,0.801-1.52,1.445-1.52s1.361,0.355,2.285,0.793
	c0.883,0.449,2.246,0.969,3.77,0.969c4.086,0,7.215-3.041,7.215-7.562c0-4.801-2.322-6.963-7.578-8.523
	c-3.043-0.883-4.49-1.602-4.451-3.885c0-1.559,1.043-3.277,3.289-3.277c1.723,0,3.688,1.318,4.412,2.24
	c0.6,0.76,1.08,1.883,1.361,3.078h1.965L170.285,7.94L170.285,7.94z M182.996,6.099c0-1.883,0.482-3.043,1.32-3.201l1.244-0.201
	V0.419h-9.666v2.277l1.283,0.203c0.795,0.16,1.279,1.316,1.279,3.201v13.846c0,1.836-0.316,3-1.279,3.199l-1.283,0.201v2.281h9.703
	v-2.281l-1.281-0.201c-1.002-0.199-1.32-1.359-1.32-3.199V14.46h6.574v5.486c0,1.836-0.316,3-1.359,3.199l-1.242,0.201v2.281h9.666
	v-2.281l-1.242-0.201c-1.002-0.199-1.326-1.359-1.326-3.199V6.099c0-1.883,0.482-3.043,1.326-3.201l1.242-0.201V0.419h-9.666v2.277
	l1.242,0.203c0.883,0.16,1.359,1.316,1.359,3.201v4.842h-6.574V6.099L182.996,6.099z M200.799,2.696l1.283,0.201
	c0.799,0.162,1.279,1.318,1.279,3.203v9.48c0,7.002,1.648,10.283,7.982,10.283c4.129,0,6.371-2.039,6.371-9.561V6.099
	c0-1.52,0.238-3.041,1.32-3.201l1.279-0.201V0.419h-7.74v2.277l1.244,0.203c1.123,0.162,1.361,1.682,1.361,3.201v10.883
	c0,5.043-1.484,6.322-3.566,6.322c-3.248,0-3.73-2.402-3.73-8.684V6.099c0-1.883,0.482-3.041,1.283-3.201l1.283-0.201V0.419h-9.666
	v2.277H200.799L200.799,2.696z M229.588,6.099h0.078l3.846,19.527h2.602l3.811-19.527h0.078v13.844c0,1.84-0.32,2.961-1.322,3.199
	l-0.885,0.201v2.283h9.301v-2.283l-1.281-0.201c-1.002-0.197-1.32-1.359-1.32-3.199V6.099c0-1.883,0.482-3.043,1.281-3.201
	l1.285-0.201V0.419h-8.783l-2.361,12.279L233.43,0.419h-8.984v2.277l1.283,0.203c0.801,0.16,1.281,1.316,1.281,3.201v13.846
	c0,1.836-0.32,3-1.281,3.199l-1.283,0.201v2.281h7.336v-2.281l-0.885-0.201c-1.002-0.238-1.32-1.359-1.32-3.199V6.099H229.588z
	 M262.066,13.901l-1.322-6.121h-0.162l-1.684,6.121H262.066z M257.975,17.462l-0.314,1.201c-0.598,2.359,0,4.08,0.883,4.4
	l1.041,0.281v2.281h-8.5v-2.281l0.883-0.281c1.002-0.318,1.688-1.518,2.805-5.643l4.609-17.004h3.73l4.73,18.283
	c0.725,2.803,1.406,3.965,2.084,4.203l1.121,0.441v2.281h-9.861v-2.281l1.041-0.281c1.043-0.318,1.523-1.357,0.885-4.4l-0.283-1.201
	H257.975z M277.865,19.942c0,1.84-0.322,3.002-1.285,3.201l-1.281,0.201v2.281H285v-2.281l-1.277-0.201
	c-1.002-0.199-1.32-1.359-1.32-3.201V6.099c0-1.883,0.482-3.041,1.283-3.201l1.281-0.201V0.419h-9.666v2.277l1.281,0.203
	c0.803,0.162,1.283,1.316,1.283,3.201V19.942L277.865,19.942z"/>
</svg>
