<?xml version="1.0" encoding="utf-8"?>
<!-- Generator: Adobe Illustrator 16.0.0, SVG Export Plug-In . SVG Version: 6.00 Build 0)  -->
<!DOCTYPE svg PUBLIC "-//W3C//DTD SVG 1.1//EN" "http://www.w3.org/Graphics/SVG/1.1/DTD/svg11.dtd">
<svg version="1.1" id="レイヤー_1" xmlns="http://www.w3.org/2000/svg" xmlns:xlink="http://www.w3.org/1999/xlink" x="0px"
	 y="0px" width="310px" height="170px" viewBox="0 0 310 170" enable-background="new 0 0 310 170" xml:space="preserve">
<path fill="#A72126" d="M19.767,112.499c0-5.25,1.34-8.488,3.686-8.933l3.462-0.56v-6.364H0v6.364l3.574,0.56
	c2.233,0.445,3.573,3.683,3.573,8.933v38.642c0,5.135-0.894,8.373-3.573,8.932L0,160.633v6.364h27.026v-6.364l-3.574-0.56
	c-2.792-0.558-3.686-3.8-3.686-8.933v-15.3h18.315v15.3c0,5.135-0.895,8.375-3.798,8.933l-3.461,0.56v6.364h26.916v-6.364
	l-3.463-0.56c-2.792-0.558-3.685-3.8-3.685-8.931V112.5c0-5.248,1.34-8.488,3.685-8.932l3.463-0.558v-6.368H30.823v6.368
	l3.462,0.558c2.457,0.447,3.798,3.684,3.798,8.932v13.516H19.767V112.499z M99.506,134.277l-3.685-17.086h-0.447l-4.69,17.086
	H99.506z M88.115,144.218l-0.895,3.351c-1.675,6.589,0,11.396,2.457,12.283l2.904,0.782v6.364H68.906v-6.364l2.456-0.782
	c2.793-0.896,4.691-4.238,7.818-15.746l12.843-47.465h10.386l13.178,51.039c2.01,7.816,3.909,11.055,5.807,11.728l3.126,1.228v6.364
	H97.049v-6.364l2.903-0.781c2.904-0.896,4.244-3.799,2.458-12.283l-0.782-3.352L88.115,144.218L88.115,144.218z M150.656,112.499
	h0.223L161.598,167h7.258l10.609-54.501h0.223v38.642c0,5.135-0.896,8.264-3.685,8.932l-2.457,0.56v6.364h25.912v-6.362l-3.572-0.56
	c-2.794-0.559-3.684-3.801-3.684-8.934v-38.64c0-5.25,1.339-8.49,3.571-8.931l3.574-0.561v-6.363h-24.457l-6.586,34.283
	l-6.928-34.283h-25.016v6.363l3.573,0.561c2.231,0.445,3.577,3.681,3.577,8.931v38.64c0,5.135-0.896,8.375-3.577,8.934l-3.573,0.56
	v6.364h20.44v-6.364l-2.455-0.56c-2.794-0.67-3.687-3.801-3.687-8.934v-38.64L150.656,112.499L150.656,112.499z M241.118,134.277
	l-3.687-17.086h-0.447l-4.691,17.086H241.118z M229.727,144.218l-0.896,3.351c-1.677,6.589,0,11.396,2.457,12.283l2.903,0.782v6.364
	h-23.68v-6.364l2.456-0.782c2.794-0.896,4.69-4.238,7.816-15.746l12.843-47.465h10.387l13.182,51.039
	c2.011,7.816,3.91,11.055,5.808,11.728l3.124,1.228v6.364h-27.473v-6.364l2.906-0.781c2.9-0.896,4.242-3.799,2.453-12.285
	l-0.779-3.35L229.727,144.218L229.727,144.218z"/>
</svg>
