<?xml version="1.0" encoding="utf-8"?>
<!-- Generator: Adobe Illustrator 16.0.0, SVG Export Plug-In . SVG Version: 6.00 Build 0)  -->
<!DOCTYPE svg PUBLIC "-//W3C//DTD SVG 1.1//EN" "http://www.w3.org/Graphics/SVG/1.1/DTD/svg11.dtd">
<svg version="1.1" id="レイヤー_1" xmlns="http://www.w3.org/2000/svg" xmlns:xlink="http://www.w3.org/1999/xlink" x="0px"
	 y="0px" width="335px" height="24px" viewBox="0 0 335 24" enable-background="new 0 0 335 24" xml:space="preserve">
<path fill="#A72126" d="M15.174,17.512c0-1.016,0.21-1.82,1.05-1.82h1.19V13.04h-7.175v2.651H10.8c0.7,0,1.26,0.524,1.26,1.854
	c0,2.904-1.645,3.465-3.15,3.465c-2.239,0-3.185-2.834-3.185-4.795V6.908c0-1.959,0.42-3.886,2.521-3.886
	c2.729,0,3.814,4.795,3.85,8.261h3.605V0.886H13.32c0,0.455-0.14,1.12-0.56,1.12c-0.525,0-1.12-0.35-1.68-0.596
	c-0.875-0.42-1.82-0.664-2.835-0.664C3.659,0.746,1,4.701,1,8.656v5.845c0,4.271,2.1,8.75,7.35,8.75c1.12,0,2.205-0.104,2.765-0.354
	c0.561-0.244,1.051-0.482,1.436-0.482c0.385,0,0.63,0.312,0.77,0.631h1.855V17.52h-0.002V17.512z M19.444,2.986l0.91,0.143
	c0.735,0.104,1.155,1.016,1.82,2.346L26.129,13v5.074c0,1.607-0.28,2.625-1.155,2.801l-1.12,0.176v1.994h8.471v-1.994l-1.119-0.176
	c-0.875-0.176-1.155-1.189-1.155-2.801v-6.581l3.885-7.034c0.386-0.665,0.665-1.227,1.12-1.296l1.189-0.177V0.994H29.28v1.993
	l1.084,0.177c0.666,0.142,0.807,0.806,0.315,1.646l-2.17,3.955l-2.24-4.06c-0.455-0.808-0.245-1.399,0.525-1.541l1.085-0.177V0.994
	h-8.436L19.444,2.986L19.444,2.986z M44.188,16.217c0,2.555,0.386,4.795,2.485,4.795c2.064,0,2.484-2.414,2.484-4.795V6.908
	c0-1.959-0.42-3.886-2.484-3.886c-2.1,0-2.485,1.927-2.485,3.886V16.217z M53.918,15.098c0.035,4.41-2.834,8.154-7.244,8.154
	c-4.375,0-7.314-3.15-7.28-7.91l0.035-6.684c0-4.13,2.87-7.91,7.245-7.91s7.21,3.535,7.244,7.91V15.098z M59.063,8.132h2.205v-1.89
	c0-1.715,0.875-2.521,3.325-2.521h1.645c0.596,0,1.051,0.279,1.051,0.733c0,0.421-0.104,0.91-0.42,1.471l-8.436,15.122v1.994h14.771
	v-7.176H71v1.926c0,1.682-0.84,2.482-3.291,2.482h-2.311c-0.56,0-1.085-0.277-1.085-0.732c0-0.523,0.142-1.119,0.386-1.506
	l8.506-15.051V0.992H59.063V8.132z M86.853,12.787l-1.154-5.354h-0.141l-1.47,5.354H86.853z M83.283,15.902l-0.278,1.051
	c-0.525,2.064,0,3.568,0.77,3.85l0.91,0.246v1.994h-7.42v-1.994l0.771-0.246c0.875-0.279,1.471-1.328,2.449-4.936L84.51,0.993h3.255
	l4.13,15.993c0.63,2.451,1.227,3.468,1.82,3.677l0.979,0.387v1.994h-8.609V21.05l0.91-0.245c0.91-0.279,1.33-1.188,0.771-3.851
	l-0.245-1.052H83.283L83.283,15.902z M112.369,19.787c1.119,0,1.785-0.35,2.274-0.77c-1.188-1.4-2.555-3.646-3.29-5.225
	c-1.085,0.701-1.54,1.896-1.54,3.08C109.813,18.422,111.004,19.787,112.369,19.787z M113.488,8.167c0.91-0.665,1.61-1.854,1.61-2.94
	c0-0.979-0.56-1.645-1.399-1.645c-1.016,0-1.365,0.84-1.365,1.75C112.334,6.208,112.928,7.433,113.488,8.167z M122.205,17.406h2.31
	v1.365c0,2.801-1.155,4.479-3.5,4.479c-1.54,0-3.045-0.598-4.375-1.75c-1.54,1.328-3.535,1.75-4.935,1.75
	c-4.727,0-6.44-3.326-6.44-6.438c0-3.535,2.17-5.5,4.271-6.688c-0.524-1.261-0.875-2.729-0.875-4.13
	c0-3.012,1.926-5.006,4.654-5.006c2.73,0,4.762,1.646,4.762,4.619c0,2.312-1.051,4.236-2.977,6.125
	c0.771,1.226,1.891,2.907,2.73,4.062l0.629-0.731c0.49-0.599,0.596-1.33,0.596-1.785c0-0.696-0.385-1.083-0.945-1.083h-0.63V10.13
	h7.035v2.064c-1.015,0-1.61,0.068-1.854,0.732c-0.734,1.961-1.574,4.062-3.045,5.43c0.385,0.695,1.086,1.541,1.574,1.541
	c0.735,0,1.016-0.521,1.016-1.295L122.205,17.406L122.205,17.406z M149.642,7.574v-6.58h-1.715
	c-0.244,0.243-0.524,0.524-0.944,0.524c-0.523,0-1.05-0.176-1.607-0.351c-0.666-0.21-1.819-0.421-2.905-0.421
	c-3.465,0-6.299,2.311-6.299,6.021c0,3.5,1.26,5.459,4.409,6.788l2.729,1.121c1.154,0.49,3.012,1.33,3.012,3.324
	c0,1.398-1.086,2.66-2.557,2.66c-2.381,0-4.131-1.154-5.006-2.557c-0.562-0.875-0.91-1.646-1.084-2.59h-1.75v7.521h1.75
	c0.312-0.636,0.697-1.33,1.26-1.33s1.188,0.312,1.994,0.694c0.771,0.392,1.961,0.847,3.291,0.847c3.568,0,6.299-2.66,6.299-6.615
	c0-4.199-2.027-6.09-6.614-7.456c-2.658-0.771-3.92-1.4-3.887-3.396c0-1.364,0.91-2.869,2.871-2.869c1.504,0,3.221,1.154,3.852,1.96
	c0.523,0.665,0.943,1.646,1.188,2.694h1.715L149.642,7.574L149.642,7.574z M160.738,5.962c0-1.646,0.42-2.66,1.152-2.8l1.086-0.176
	V0.994h-8.437v1.993l1.12,0.177c0.695,0.14,1.117,1.153,1.117,2.8v12.111c0,1.606-0.276,2.625-1.117,2.799l-1.12,0.176v1.996h8.471
	V21.05l-1.12-0.176c-0.875-0.174-1.152-1.188-1.152-2.799v-4.798h5.739v4.798c0,1.606-0.277,2.625-1.188,2.799l-1.084,0.176v1.996
	h8.437V21.05l-1.084-0.176c-0.875-0.174-1.156-1.188-1.156-2.799V5.962c0-1.646,0.42-2.66,1.156-2.8l1.084-0.176V0.994h-8.437v1.993
	l1.084,0.177c0.771,0.14,1.188,1.153,1.188,2.8v4.235h-5.739V5.962L160.738,5.962z M176.277,2.986l1.121,0.177
	c0.697,0.142,1.117,1.153,1.117,2.801v8.293c0,6.125,1.438,8.996,6.967,8.996c3.604,0,5.562-1.785,5.562-8.364V5.963
	c0-1.33,0.209-2.66,1.153-2.801l1.116-0.176V0.994h-6.756v1.993l1.086,0.177c0.979,0.142,1.188,1.471,1.188,2.801v9.52
	c0,4.41-1.295,5.529-3.114,5.529c-2.834,0-3.255-2.102-3.255-7.596V5.963c0-1.646,0.421-2.66,1.119-2.801l1.121-0.176V0.994h-8.438
	v1.993L176.277,2.986L176.277,2.986z M201.408,5.962h0.068l3.357,17.081h2.271l3.326-17.081h0.068v12.11
	c0,1.609-0.279,2.59-1.154,2.799l-0.771,0.176v1.996h8.119v-1.996l-1.119-0.176c-0.875-0.174-1.153-1.189-1.153-2.799V5.962
	c0-1.646,0.42-2.66,1.119-2.8l1.12-0.176V0.994h-7.666l-2.062,10.743l-2.17-10.743h-7.842v1.993l1.119,0.177
	c0.7,0.14,1.12,1.153,1.12,2.8v12.111c0,1.606-0.28,2.625-1.12,2.799l-1.119,0.176v1.996h6.403V21.05l-0.771-0.176
	c-0.875-0.209-1.152-1.188-1.152-2.799V5.962H201.408z M229.758,12.787l-1.154-5.354h-0.141l-1.469,5.354H229.758z M226.188,15.902
	l-0.276,1.051c-0.521,2.064,0,3.568,0.771,3.85l0.909,0.246v1.994h-7.42v-1.994l0.771-0.246c0.875-0.279,1.473-1.328,2.447-4.936
	l4.024-14.875h3.257l4.129,15.994c0.631,2.451,1.227,3.467,1.819,3.676l0.979,0.387v1.994h-8.609v-1.994l0.91-0.246
	c0.91-0.279,1.33-1.188,0.771-3.85l-0.246-1.051H226.188z M243.549,18.072c0,1.609-0.281,2.625-1.121,2.801l-1.119,0.176v1.994
	h8.469v-1.994l-1.116-0.176c-0.875-0.176-1.152-1.189-1.152-2.801V5.963c0-1.646,0.421-2.66,1.12-2.801l1.118-0.176V0.994h-8.438
	v1.993l1.119,0.177c0.701,0.142,1.121,1.153,1.121,2.801V18.072L243.549,18.072z"/>
</svg>
