<?xml version="1.0" encoding="utf-8"?>
<!-- Generator: Adobe Illustrator 16.0.0, SVG Export Plug-In . SVG Version: 6.00 Build 0)  -->
<!DOCTYPE svg PUBLIC "-//W3C//DTD SVG 1.1//EN" "http://www.w3.org/Graphics/SVG/1.1/DTD/svg11.dtd">
<svg version="1.1" id="レイヤー_1" xmlns="http://www.w3.org/2000/svg" xmlns:xlink="http://www.w3.org/1999/xlink" x="0px"
	 y="0px" width="310px" height="170px" viewBox="0 0 310 170" enable-background="new 0 0 310 170" xml:space="preserve">
<path fill="#A72126" d="M45.229,74.14h-5.918c-0.447-1.006-1.229-2.01-2.457-2.01s-2.792,0.782-4.579,1.564
	c-1.787,0.781-5.249,1.117-8.823,1.117C6.7,74.811,0,60.516,0,46.891V28.24C0,15.619,8.488,3,23.118,3
	c3.238,0,6.253,0.782,9.046,2.122c1.787,0.781,3.685,1.898,5.36,1.898c1.34,0,1.787-2.122,1.787-3.574h7.594v33.169H35.401
	c-0.111-11.056-3.573-26.356-12.284-26.356c-6.702,0-8.042,6.143-8.042,12.396v29.707c0,6.254,3.015,15.3,10.162,15.3
	c4.803,0,10.052-1.787,10.052-11.056c0-4.244-1.788-5.919-4.021-5.919h-1.787V42.2h22.894v8.487h-3.797
	c-2.681,0-3.351,2.569-3.351,5.808L45.229,74.14L45.229,74.14z M70.915,58.279c0,5.138-0.894,8.376-3.574,8.935l-3.573,0.558v6.366
	h27.026v-6.366l-3.574-0.558c-2.792-0.559-3.684-3.798-3.684-8.935v-38.64c0-5.249,1.339-8.488,3.572-8.934l3.574-0.559V3.782
	H63.768v6.365l3.573,0.559c2.235,0.446,3.574,3.685,3.574,8.934V58.279L70.915,58.279z M132.338,41.416l-3.685-17.087h-0.447
	l-4.69,17.087H132.338z M120.946,51.356l-0.894,3.351c-1.675,6.589,0,11.392,2.458,12.284l2.903,0.782v6.366h-23.677v-6.365
	l2.458-0.782c2.792-0.894,4.69-4.244,7.817-15.747l12.843-47.464h10.386l13.178,51.037c2.01,7.817,3.91,11.057,5.807,11.727
	l3.127,1.229v6.366h-27.476v-6.366l2.904-0.782c2.903-0.894,4.244-3.797,2.457-12.285l-0.782-3.351H120.946L120.946,51.356z
	 M183.486,19.639h0.225l19.542,54.5h12.956v-54.5c0-5.249,1.34-8.488,3.686-8.934l3.463-0.559V3.782h-21.441v6.365l3.572,0.559
	c2.234,0.446,3.574,3.685,3.574,8.934v24.235h-0.111L194.21,3.782h-25.017v6.365l3.574,0.559c2.233,0.446,3.571,3.685,3.571,8.934
	v38.64c0,5.138-0.896,8.376-3.571,8.935l-3.574,0.558v6.366h20.438v-6.366l-2.457-0.558c-2.793-0.67-3.686-3.798-3.686-8.935V19.639
	H183.486z M236.98,31.812h6.588v-6.255c0-6.588,1.677-13.849,6.477-13.849c4.245,0,4.691,6.59,4.691,10.833v35.737
	c0,5.138-0.895,8.376-3.686,8.935l-3.572,0.558v6.366h27.025v-6.366l-3.464-0.558c-2.901-0.559-3.797-3.798-3.797-8.935V22.542
	c0-4.243,0.444-10.833,4.69-10.833c4.799,0,6.476,7.259,6.476,13.849v6.255H285V3.782h-48.023v28.031L236.98,31.812L236.98,31.812z"
	/>
</svg>
