<?xml version="1.0" encoding="utf-8"?>
<!-- Generator: Adobe Illustrator 16.0.0, SVG Export Plug-In . SVG Version: 6.00 Build 0)  -->
<!DOCTYPE svg PUBLIC "-//W3C//DTD SVG 1.1//EN" "http://www.w3.org/Graphics/SVG/1.1/DTD/svg11.dtd">
<svg version="1.1" id="レイヤー_1" xmlns="http://www.w3.org/2000/svg" xmlns:xlink="http://www.w3.org/1999/xlink" x="0px"
	 y="0px" width="285px" height="163px" viewBox="0 0 285 163" enable-background="new 0 0 285 163" xml:space="preserve">
<g>
	<g>
		<path fill="#A72126" d="M45.229,71.555h-5.918c-0.447-1.006-1.229-2.01-2.457-2.01s-2.792,0.782-4.579,1.563
			s-5.249,1.117-8.823,1.117C6.7,72.226,0,57.931,0,44.306v-18.65c0-12.621,8.488-25.24,23.118-25.24
			c3.238,0,6.253,0.782,9.046,2.122c1.787,0.78,3.685,1.897,5.36,1.897c1.34,0,1.787-2.122,1.787-3.574h7.594v33.17H35.401
			C35.29,22.974,31.828,7.674,23.117,7.674c-6.702,0-8.042,6.143-8.042,12.396v29.707c0,6.255,3.015,15.301,10.162,15.301
			c4.803,0,10.052-1.787,10.052-11.057c0-4.244-1.788-5.919-4.021-5.919h-1.787v-8.486h22.894v8.486h-3.797
			c-2.681,0-3.351,2.569-3.351,5.809L45.229,71.555L45.229,71.555z M70.915,55.693c0,5.139-0.894,8.376-3.574,8.936l-3.573,0.558
			v6.366h27.026v-6.366l-3.574-0.558c-2.792-0.56-3.684-3.798-3.684-8.936v-38.64c0-5.249,1.339-8.488,3.572-8.934l3.574-0.56V1.197
			H63.768v6.364l3.573,0.56c2.235,0.445,3.574,3.685,3.574,8.934V55.693L70.915,55.693z M132.338,38.831l-3.685-17.087h-0.447
			l-4.69,17.087H132.338z M120.946,48.771l-0.894,3.352c-1.675,6.589,0,11.392,2.458,12.284l2.903,0.781v6.366h-23.677v-6.365
			l2.458-0.781c2.792-0.895,4.69-4.244,7.817-15.747l12.843-47.464h10.386l13.178,51.036c2.01,7.817,3.91,11.058,5.807,11.728
			l3.126,1.229v6.366h-27.476v-6.366l2.904-0.781c2.903-0.895,4.244-3.798,2.457-12.285l-0.782-3.352H120.946L120.946,48.771z
			 M183.486,17.054h0.225l19.542,54.5h12.956v-54.5c0-5.249,1.34-8.488,3.686-8.934l3.463-0.56V1.197h-21.44v6.364l3.571,0.56
			c2.234,0.445,3.574,3.685,3.574,8.934V41.29h-0.11L194.21,1.197h-25.017v6.364l3.574,0.56c2.232,0.445,3.57,3.685,3.57,8.934
			v38.64c0,5.139-0.896,8.377-3.57,8.936l-3.574,0.558v6.366h20.438v-6.366l-2.457-0.558c-2.793-0.67-3.686-3.798-3.686-8.936
			V17.054H183.486z M236.98,29.227h6.588v-6.255c0-6.588,1.677-13.849,6.477-13.849c4.245,0,4.691,6.59,4.691,10.833v35.736
			c0,5.139-0.896,8.376-3.687,8.936l-3.571,0.558v6.366h27.024v-6.366l-3.464-0.558c-2.9-0.56-3.797-3.798-3.797-8.936V19.957
			c0-4.243,0.443-10.833,4.689-10.833c4.799,0,6.477,7.259,6.477,13.849v6.255H285V1.197h-48.023v28.03L236.98,29.227L236.98,29.227
			z"/>
	</g>
</g>
</svg>
