<?xml version="1.0" encoding="utf-8"?>
<!-- Generator: Adobe Illustrator 16.0.0, SVG Export Plug-In . SVG Version: 6.00 Build 0)  -->
<!DOCTYPE svg PUBLIC "-//W3C//DTD SVG 1.1//EN" "http://www.w3.org/Graphics/SVG/1.1/DTD/svg11.dtd">
<svg version="1.1" id="レイヤー_1" xmlns="http://www.w3.org/2000/svg" xmlns:xlink="http://www.w3.org/1999/xlink" x="0px"
	 y="0px" width="285px" height="163px" viewBox="0 0 285 163" enable-background="new 0 0 285 163" xml:space="preserve">
<g>
	<path fill="#A72126" d="M19.768,108.083c0-5.25,1.34-8.488,3.686-8.932l3.463-0.561v-6.363H0v6.363l3.574,0.561
		c2.233,0.443,3.573,3.682,3.573,8.932v38.643c0,5.135-0.894,8.373-3.573,8.932L0,156.218v6.363h27.026v-6.363l-3.573-0.561
		c-2.793-0.557-3.687-3.799-3.687-8.932v-15.301h18.315v15.301c0,5.135-0.896,8.375-3.799,8.932l-3.461,0.561v6.363h26.916v-6.363
		l-3.463-0.561c-2.792-0.557-3.686-3.799-3.686-8.93v-38.643c0-5.248,1.341-8.488,3.686-8.932l3.463-0.559v-6.367H30.824v6.367
		l3.461,0.559c2.457,0.447,3.799,3.684,3.799,8.932v13.516H19.768V108.083z M107.77,129.862l-3.685-17.086h-0.447l-4.69,17.086
		H107.77z M96.379,139.802l-0.895,3.352c-1.675,6.59,0,11.396,2.457,12.283l2.904,0.781v6.365H77.17v-6.365l2.456-0.781
		c2.793-0.896,4.691-4.238,7.818-15.746l12.843-47.465h10.386l13.178,51.039c2.01,7.816,3.909,11.055,5.807,11.729l3.126,1.229
		v6.363h-27.471v-6.363l2.903-0.781c2.904-0.896,4.244-3.799,2.458-12.283l-0.782-3.352L96.379,139.802L96.379,139.802z
		 M163.832,108.083h0.223l10.719,54.502h7.258l10.609-54.502h0.223v38.643c0,5.135-0.896,8.264-3.685,8.932l-2.457,0.561v6.363
		h25.912v-6.361l-3.571-0.561c-2.795-0.559-3.685-3.801-3.685-8.934v-38.641c0-5.25,1.339-8.49,3.571-8.93l3.574-0.562v-6.361
		h-24.457l-6.586,34.283l-6.929-34.283h-25.017v6.361l3.574,0.562c2.23,0.445,3.576,3.68,3.576,8.93v38.641
		c0,5.135-0.896,8.375-3.576,8.934l-3.574,0.561v6.363h20.44v-6.363l-2.454-0.561c-2.795-0.67-3.688-3.801-3.688-8.934v-38.641
		L163.832,108.083L163.832,108.083z M259.991,129.862l-3.687-17.086h-0.447l-4.691,17.086H259.991z M248.6,139.802l-0.896,3.352
		c-1.677,6.59,0,11.396,2.457,12.283l2.903,0.781v6.365h-23.68v-6.365l2.455-0.781c2.795-0.896,4.69-4.238,7.816-15.746
		l12.843-47.465h10.388l13.182,51.039c2.011,7.816,3.91,11.055,5.808,11.729l3.124,1.229v6.363h-27.473v-6.363l2.906-0.781
		c2.899-0.896,4.242-3.799,2.453-12.285l-0.779-3.35L248.6,139.802L248.6,139.802z"/>
</g>
</svg>
