<?xml version="1.0" encoding="utf-8"?>
<!-- Generator: Adobe Illustrator 25.0.0, SVG Export Plug-In . SVG Version: 6.00 Build 0)  -->
<svg version="1.1" id="Layer_1" xmlns="http://www.w3.org/2000/svg" xmlns:xlink="http://www.w3.org/1999/xlink" x="0px" y="0px"
	 viewBox="0 0 240 234" style="enable-background:new 0 0 240 234;" xml:space="preserve">
<style type="text/css">
	.st0{fill:#04220F;}
	.st1{fill:#60B630;stroke:#60B630;stroke-width:5;stroke-linecap:round;stroke-linejoin:round;stroke-miterlimit:10;}
	.st2{fill:#60B630;stroke:#60B630;stroke-width:4;stroke-miterlimit:10;}
</style>
<g id="Surfaces">
	<g id="Photo_Surface">
		<g id="Outline_no_shadow">
			<path class="st0" d="M42.5-0.5h155C221-0.5,240,18.5,240,42v149c0,23.5-19,42.5-42.5,42.5h-155C19,233.5,0,214.5,0,191V42
				C0,18.5,19-0.5,42.5-0.5z"/>
		</g>
	</g>
</g>
<path class="st1" d="M25.2,124.4v-15.8l53.7-40.7v17L37,116.5l41.8,31.4v17.3L25.2,124.4z"/>
<path class="st2" d="M91.5,175.4L136,57.5h13.1l-44.5,117.9H91.5z"/>
<path class="st1" d="M161.7,165.1v-17.3l41.8-31.4l-41.8-31.7v-17l53.7,40.7v15.8L161.7,165.1z"/>
</svg>
