<svg id="Figma_icon" data-name="Figma icon" xmlns="http://www.w3.org/2000/svg" width="70" height="70" viewBox="0 0 70 70">
  <g id="ads_manager" data-name="ads manager">
    <rect id="長方形_406" data-name="長方形 406" width="70" height="70" rx="11" fill="#525967"/>
    <path id="パス_49" data-name="パス 49" d="M75.111,18.829A7.086,7.086,0,0,1,82.2,25.915v49.2A7.086,7.086,0,0,1,75.111,82.2h-49.2a7.086,7.086,0,0,1-7.086-7.086v-49.2a7.086,7.086,0,0,1,7.086-7.086h49.2m0-3.037h-49.2A10.123,10.123,0,0,0,15.792,25.915v49.2A10.123,10.123,0,0,0,25.915,85.233h49.2A10.123,10.123,0,0,0,85.233,75.111v-49.2A10.123,10.123,0,0,0,75.111,15.792Z" transform="translate(-15.517 -15.518)" fill="#454b57"/>
    <path id="path0_fill" data-name="path0 fill" d="M33.936,56.812A8.512,8.512,0,0,0,42.448,48.3V39.788H33.936a8.512,8.512,0,1,0,0,17.024Z" transform="translate(-7.643 4.292)" fill="#0acf83"/>
    <path id="path1_fill" data-name="path1 fill" d="M25.424,38.724a8.512,8.512,0,0,1,8.512-8.512h8.512V47.236H33.936A8.512,8.512,0,0,1,25.424,38.724Z" transform="translate(-7.643 -3.729)" fill="#a259ff"/>
    <path id="path1_fill-2" data-name="path1 fill" d="M25.424,29.148a8.512,8.512,0,0,1,8.512-8.512h8.512V37.66H33.936A8.512,8.512,0,0,1,25.424,29.148Z" transform="translate(-7.643 -11.75)" fill="#f24e1e"/>
    <path id="path2_fill" data-name="path2 fill" d="M35,20.664h8.512a8.512,8.512,0,1,1,0,17.024H35Z" transform="translate(0.186 -11.728)" fill="#ff7262"/>
    <path id="path3_fill" data-name="path3 fill" d="M52.024,38.724a8.512,8.512,0,1,1-8.512-8.512A8.512,8.512,0,0,1,52.024,38.724Z" transform="translate(0.186 -3.729)" fill="#1abcfe"/>
  </g>
</svg>
