<?xml version="1.0" encoding="utf-8"?>
<!-- Generator: Adobe Illustrator 25.0.0, SVG Export Plug-In . SVG Version: 6.00 Build 0)  -->
<svg version="1.1" id="レイヤー_1" xmlns="http://www.w3.org/2000/svg" xmlns:xlink="http://www.w3.org/1999/xlink" x="0px"
	 y="0px" viewBox="0 0 600 600" style="enable-background:new 0 0 600 600;" xml:space="preserve">
<style type="text/css">
	.st0{clip-path:url(#SVGID_2_);}
	.st1{fill:#00749A;}
	.st2{fill:#464342;}
</style>
<g>
	<defs>
		<rect id="SVGID_1_" width="600" height="600"/>
	</defs>
	<clipPath id="SVGID_2_">
		<use xlink:href="#SVGID_1_"  style="overflow:visible;"/>
	</clipPath>
	<g class="st0">
		<path class="st1" d="M1533.7,236.2h-104.1v11c32.6,0,37.8,7,37.8,48.3v74.4c0,41.3-5.2,48.9-37.8,48.9
			c-25-3.5-41.9-16.9-65.1-42.5l-26.7-29.1c36-6.4,55.2-29.1,55.2-54.7c0-32-27.3-56.4-78.5-56.4h-102.3v11c32.6,0,37.8,7,37.8,48.3
			v74.4c0,41.3-5.2,48.9-37.8,48.9v11h115.7v-11c-32.6,0-37.8-7.6-37.8-48.9V349h9.9l64.6,80.8h169.2c83.2,0,119.2-44.2,119.2-97.1
			C1652.9,279.8,1616.9,236.2,1533.7,236.2L1533.7,236.2z M1290.1,331v-77.3h23.8c26.2,0,37.8,18,37.8,39
			c0,20.4-11.6,38.4-37.8,38.4L1290.1,331z M1535.5,411.8h-4.1c-20.9,0-23.8-5.2-23.8-32V253.6h27.9c60.5,0,71.5,44.2,71.5,78.5
			C1607,367.6,1595.9,411.8,1535.5,411.8z M888.2,352.5l40.1-118.6c11.6-34.3,6.4-44.2-30.8-44.2V178h109.3v11.6
			c-36.6,0-45.4,8.7-59.9,51.2l-66.3,198.9h-7.6l-59.3-182l-60.5,182h-7.6l-64.5-198.9c-14-42.5-23.3-51.2-57-51.2V178h129.1v11.6
			c-34.3,0-43.6,8.1-31.4,44.2l39,118.6L819.6,178h11.1L888.2,352.5L888.2,352.5z M1085.9,437.4c-64,0-116.3-47.1-116.3-104.7
			c0-57,52.3-104.1,116.3-104.1c64,0,116.3,47.1,116.3,104.1C1202.2,390.3,1149.9,437.4,1085.9,437.4z M1085.9,246.6
			c-53.5,0-72.1,48.3-72.1,86.1c0,38.4,18.6,86.1,72.1,86.1c54.1,0,72.7-47.7,72.7-86.1C1158.6,294.9,1140,246.6,1085.9,246.6
			L1085.9,246.6z"/>
		<path class="st2" d="M1796.6,418.2v11.6h-133.2v-11.6c39,0,45.9-9.9,45.9-68v-93c0-58.2-7-67.5-45.9-67.5V178h120.4
			c59.9,0,93.1,30.8,93.1,72.1c0,40.1-33.2,71.5-93.1,71.5h-33.2v28.5C1750.6,408.3,1757.6,418.2,1796.6,418.2L1796.6,418.2z
			 M1783.8,198.9h-33.2v101.2h33.2c32.6,0,47.7-22.7,47.7-50C1831.5,222.2,1816.3,198.9,1783.8,198.9z M2276.3,375.2l-2.9,10.5
			c-5.2,19.2-11.6,26.2-52.9,26.2h-8.1c-30.2,0-35.5-7-35.5-48.3v-26.7c45.4,0,48.9,4.1,48.9,34.3h11.1v-86.7h-11.1
			c0,30.2-3.5,34.3-48.9,34.3v-65.1h32c41.3,0,47.7,7,52.9,26.2l2.9,11h9.3l-4.1-54.7h-171v11c32.6,0,37.8,7,37.8,48.3v74.4
			c0,37.8-4.4,47.3-30.1,48.6c-24.4-3.7-41.2-17-64.1-42.3l-26.8-29.1c36.1-6.4,55.2-29.1,55.2-54.7c0-32-27.3-56.4-78.5-56.4
			h-102.3v11c32.6,0,37.8,7,37.8,48.3v74.4c0,41.3-5.2,48.9-37.8,48.9v11h115.7v-11c-32.6,0-37.8-7.6-37.8-48.9V349h9.9l64.5,80.8
			h239l3.5-54.7L2276.3,375.2L2276.3,375.2z M1968.1,331v-77.3h23.8c26.2,0,37.8,18,37.8,39c0,20.4-11.6,38.4-37.8,38.4L1968.1,331z
			 M2394.4,437.4c-23.3,0-43.6-12.2-52.3-19.8c-2.9,2.9-8.1,11.6-9.3,19.8h-11.1v-80.2h11.6c4.7,38.4,31.4,61.1,65.7,61.1
			c18.6,0,33.7-10.5,33.7-27.9c0-15.1-13.4-26.8-37.2-37.8l-33.2-15.7c-23.3-11.1-40.7-30.3-40.7-55.8c0-27.9,26.2-51.8,62.2-51.8
			c19.2,0,35.5,7,45.4,15.1c2.9-2.3,5.8-8.7,7.6-15.7h11v68.6h-12.2c-4.1-27.3-19.2-50-50-50c-16.3,0-31.4,9.3-31.4,23.8
			c0,15.1,12.2,23.3,40.1,36l32,15.7c27.9,13.4,39,34.9,39,52.3C2465.3,411.8,2433.3,437.4,2394.4,437.4L2394.4,437.4z
			 M2573.5,437.4c-23.3,0-43.6-12.2-52.3-19.8c-2.9,2.9-8.1,11.6-9.3,19.8h-11.1v-80.2h11.6c4.7,38.4,31.4,61.1,65.7,61.1
			c18.6,0,33.7-10.5,33.7-27.9c0-15.1-13.4-26.8-37.2-37.8l-33.2-15.7c-23.3-11.1-40.7-30.3-40.7-55.8c0-27.9,26.2-51.8,62.2-51.8
			c19.2,0,35.5,7,45.4,15.1c2.9-2.3,5.8-8.7,7.6-15.7h11.1v68.6h-12.2c-4.1-27.3-19.2-50-50-50c-16.3,0-31.4,9.3-31.4,23.8
			c0,15.1,12.2,23.3,40.1,36l32,15.7c27.9,13.4,39,34.9,39,52.3C2644.4,411.8,2612.4,437.4,2573.5,437.4L2573.5,437.4z"/>
		<g>
			<path class="st1" d="M42.6,300c0,101.9,59.2,189.9,145,231.6L64.9,195.3C50.2,228.2,42.6,263.9,42.6,300L42.6,300z M473.7,287
				c0-31.8-11.4-53.8-21.2-71c-13-21.2-25.3-39.2-25.3-60.4c0-23.7,17.9-45.7,43.2-45.7c1.1,0,2.2,0.1,3.3,0.2
				C428,68.3,367,42.6,300,42.6c-89.9,0-169,46.1-215,116c6,0.2,11.7,0.3,16.6,0.3c26.9,0,68.6-3.3,68.6-3.3
				c13.9-0.8,15.5,19.6,1.7,21.2c0,0-13.9,1.6-29.5,2.5L236,458.1l56.3-168.9l-40.1-109.9c-13.9-0.8-27-2.5-27-2.5
				c-13.9-0.8-12.2-22,1.6-21.2c0,0,42.5,3.3,67.8,3.3c26.9,0,68.6-3.3,68.6-3.3c13.9-0.8,15.5,19.6,1.7,21.2c0,0-14,1.6-29.5,2.5
				l93,276.7l25.7-85.8C465.3,334.6,473.7,309,473.7,287L473.7,287z"/>
			<path class="st1" d="M304.5,322.5l-77.2,224.4c23.6,7,48.1,10.5,72.7,10.5c30,0,58.7-5.2,85.5-14.6c-0.7-1.1-1.3-2.3-1.8-3.5
				L304.5,322.5z M525.8,176.5c1.1,8.2,1.7,17,1.7,26.5c0,26.1-4.9,55.5-19.6,92.2l-78.6,227.3c76.5-44.6,128-127.5,128-222.5
				C557.4,256.8,546.6,214.4,525.8,176.5L525.8,176.5z"/>
			<path class="st1" d="M300,0C134.6,0,0,134.6,0,300c0,165.4,134.6,300,300,300c165.4,0,300-134.6,300-300C600,134.6,465.4,0,300,0
				z M300,586.3C142.2,586.3,13.8,457.8,13.8,300C13.8,142.2,142.2,13.8,300,13.8c157.8,0,286.2,128.4,286.2,286.2
				C586.2,457.8,457.8,586.3,300,586.3L300,586.3z"/>
		</g>
	</g>
</g>
</svg>
